<?xml version="1.0" encoding="utf-8"?>
<!-- Generator: Adobe Illustrator 23.0.0, SVG Export Plug-In . SVG Version: 6.00 Build 0)  -->
<svg version="1.1" id="Layer_1" xmlns="http://www.w3.org/2000/svg" xmlns:xlink="http://www.w3.org/1999/xlink" x="0px" y="0px"
	 viewBox="0 0 100 100" style="enable-background:new 0 0 100 100;" xml:space="preserve">
<style type="text/css">
	.st0{fill:#EF4136;}
	.st1{filter:url(#Adobe_OpacityMaskFilter);}
	.st2{opacity:0.6;mask:url(#SVGID_1_);}
	.st3{fill:#FFFFFF;}
	.st4{font-family:'FuturaBT-Book';}
	.st5{font-size:7.3492px;}
	.st6{font-family:'Haettenschweiler';}
	.st7{font-size:32.6133px;}
	.st8{fill:url(#SVGID_2_);}
	.st9{fill:url(#SVGID_3_);}
	.st10{fill:url(#SVGID_4_);}
	.st11{fill:url(#SVGID_5_);}
	.st12{fill:url(#SVGID_6_);}
	.st13{fill:url(#SVGID_7_);}
	.st14{fill:url(#SVGID_8_);}
	.st15{fill:url(#SVGID_9_);}
	.st16{fill:url(#SVGID_10_);}
	.st17{fill:url(#SVGID_11_);}
	.st18{fill:url(#SVGID_12_);}
	.st19{fill:url(#SVGID_13_);}
	.st20{fill:url(#SVGID_14_);}
</style>
<g>
	<g>
		<circle class="st0" cx="53.6" cy="51.9" r="32.5"/>
	</g>
	<defs>
		<filter id="Adobe_OpacityMaskFilter" filterUnits="userSpaceOnUse" x="21.1" y="19.4" width="65" height="65">
			
				<feColorMatrix  type="matrix" values="-1 0 0 0 1  0 -1 0 0 1  0 0 -1 0 1  0 0 0 1 0" color-interpolation-filters="sRGB" result="source"/>
		</filter>
	</defs>
	<mask maskUnits="userSpaceOnUse" x="21.1" y="19.4" width="65" height="65" id="SVGID_1_">
		<g class="st1">
			
				<image style="overflow:visible;" width="289" height="289" xlink:href="7C69D1DF.jpg"  transform="matrix(0.24 0 0 0.24 18.96 17.28)">
			</image>
		</g>
	</mask>
	<g class="st2">
		<circle class="st3" cx="53.6" cy="51.9" r="32.5"/>
	</g>
</g>
<text transform="matrix(1 0 0 1 34.9385 40.354)" class="st3 st4 st5">Technology</text>
<text transform="matrix(1 0 0 1 30.9541 66.1885)" class="st3 st6 st7">Wpo</text>
<linearGradient id="SVGID_2_" gradientUnits="userSpaceOnUse" x1="52.1647" y1="95.0397" x2="53.2701" y2="9.0743">
	<stop  offset="0" style="stop-color:#D51C5A"/>
	<stop  offset="1" style="stop-color:#FBAF3B"/>
</linearGradient>
<path class="st8" d="M93.8,50.2c-0.1-1.1-0.2-2.3-0.3-3.4c-0.2-1.1-0.4-2.3-0.6-3.4c-0.5-2.2-1.2-4.4-2.1-6.5
	c-1.8-4.2-4.3-8.1-7.3-11.4c3,3.4,5.3,7.3,7,11.5c0.8,2.1,1.5,4.3,1.9,6.5c0.2,1.1,0.4,2.2,0.5,3.3c0.1,1.1,0.2,2.2,0.2,3.4
	c0,1.1,0,2.2,0,3.4c-0.1,1.1-0.2,2.2-0.3,3.3l-0.1,0.4l0,0.2l0,0.2l-0.1,0.8l-0.2,0.8c-0.1,0.3-0.1,0.5-0.2,0.8
	c-0.2,1.1-0.5,2.2-0.9,3.2c-0.3,1.1-0.7,2.1-1.2,3.1c-0.4,1-0.9,2-1.4,3c-0.5,1-1.1,2-1.7,2.9c-0.6,0.9-1.2,1.9-1.9,2.7
	c-0.2,0.2-0.3,0.4-0.5,0.7L84,76.6l-0.5,0.6c-0.2,0.2-0.4,0.4-0.6,0.6c-0.7,0.8-1.5,1.6-2.3,2.4c-1.6,1.5-3.4,2.9-5.2,4.1
	c-0.9,0.6-1.9,1.2-2.8,1.7c-1,0.5-2,1-3,1.4c-1,0.4-2,0.8-3.1,1.2c-1,0.3-2.1,0.7-3.2,0.9c-4.3,1-8.7,1.3-13.1,0.9
	c-4.4-0.4-8.6-1.6-12.5-3.5c-2-0.9-3.9-2-5.6-3.3c-0.9-0.6-1.7-1.3-2.6-2c-0.2-0.2-0.4-0.3-0.6-0.5l-0.6-0.5L27.7,80
	c-0.2-0.2-0.4-0.4-0.6-0.6c-1.5-1.5-2.9-3.2-4.2-4.9c-1.2-1.8-2.3-3.6-3.3-5.6c-0.9-1.9-1.7-4-2.3-6c-0.3-1-0.5-2.1-0.7-3.1
	c-0.2-1.1-0.4-2.1-0.5-3.2c-0.1-1.1-0.2-2.1-0.2-3.2l0-0.8l0-0.8l0-0.2l0-0.2l0-0.4l0-0.4l0-0.4c0.1-2.1,0.5-4.3,0.9-6.3
	c0.2-1,0.5-2.1,0.9-3.1c0.3-1,0.7-2,1.1-3c0.8-2,1.9-3.8,3-5.6c1.2-1.8,2.5-3.5,3.9-5c0.2-0.2,0.4-0.4,0.5-0.6l0.6-0.6l0.6-0.6
	c0.2-0.2,0.4-0.4,0.6-0.5c0.8-0.7,1.6-1.4,2.4-2c1.7-1.3,3.5-2.4,5.3-3.4c0.9-0.5,1.9-0.9,2.8-1.3c1-0.4,2-0.8,3-1.1
	c2.7-0.9,5.4-1.4,8.2-1.6v-2l-2.3,0.2l-0.2-2.1l2.4-0.3v-2c-3.4,0.3-6.8,1.1-10.1,2.2c-1.1,0.4-2.3,0.9-3.4,1.4
	c-1.1,0.5-2.2,1.1-3.2,1.7c-2.1,1.2-4.1,2.6-6,4.1c-0.9,0.8-1.8,1.6-2.7,2.4c-0.2,0.2-0.4,0.4-0.6,0.6l-0.6,0.6L22.6,23
	c-0.2,0.2-0.4,0.5-0.6,0.7c-1.6,1.8-3,3.8-4.3,5.8c-1.3,2.1-2.3,4.2-3.2,6.5c-0.4,1.1-0.8,2.3-1.2,3.4c-0.3,1.2-0.6,2.3-0.9,3.5
	c-0.5,2.3-0.8,4.7-0.9,7.1l0,0.4l0,0.4l0,0.4l0,0.2l0,0.2l0,0.9l0,0.9c0.1,1.2,0.2,2.4,0.3,3.6c0.2,1.2,0.4,2.4,0.6,3.5
	c0.3,1.2,0.6,2.3,0.9,3.5c0.7,2.3,1.6,4.5,2.7,6.6c1.1,2.1,2.4,4.1,3.8,6c1.4,1.9,3,3.7,4.7,5.3c0.2,0.2,0.4,0.4,0.7,0.6l0.7,0.6
	l0.7,0.6c0.2,0.2,0.5,0.4,0.7,0.6c0.9,0.7,1.9,1.4,2.9,2.1c2,1.3,4,2.4,6.2,3.4c4.3,1.9,8.9,3,13.6,3.4c1.2,0.1,2.3,0.1,3.5,0.1
	c1.2,0,2.3-0.1,3.5-0.2c1.2-0.1,2.3-0.3,3.5-0.5l0.9-0.2l0.9-0.2c0.1,0,0.3-0.1,0.4-0.1l0.4-0.1c0.3-0.1,0.6-0.1,0.8-0.2
	c1.1-0.3,2.2-0.7,3.3-1.1c1.1-0.4,2.2-0.9,3.2-1.3c1.1-0.5,2.1-1,3.1-1.6c1-0.6,2-1.2,2.9-1.9c1.9-1.3,3.7-2.8,5.3-4.4
	c0.8-0.8,1.6-1.7,2.4-2.5c0.2-0.2,0.4-0.4,0.6-0.7l0.5-0.7l0.5-0.7c0.2-0.2,0.3-0.5,0.5-0.7c0.7-0.9,1.3-1.9,1.9-2.9
	c0.6-1,1.1-2,1.6-3c0.5-1,1-2.1,1.4-3.2c0.4-1.1,0.8-2.2,1.1-3.3c0.3-1.1,0.6-2.2,0.8-3.3c0.1-0.3,0.1-0.6,0.2-0.8l0.1-0.8l0.1-0.9
	l0-0.2l0-0.2l0-0.4c0.1-1.1,0.2-2.3,0.2-3.4C93.9,52.5,93.9,51.3,93.8,50.2z"/>
<linearGradient id="SVGID_3_" gradientUnits="userSpaceOnUse" x1="49.8954" y1="12.3678" x2="51.6704" y2="12.3678">
	<stop  offset="0" style="stop-color:#D51C5A"/>
	<stop  offset="1" style="stop-color:#FBAF3B"/>
</linearGradient>
<polygon class="st9" points="51.7,13.4 49.9,13.4 49.9,11.3 51.6,11.3 "/>
<linearGradient id="SVGID_4_" gradientUnits="userSpaceOnUse" x1="-50.8827" y1="198.9724" x2="-50.1219" y2="139.8087" gradientTransform="matrix(0.8012 -3.073198e-02 3.544093e-02 0.924 87.7925 -118.8234)">
	<stop  offset="0" style="stop-color:#D51C5A"/>
	<stop  offset="1" style="stop-color:#FBAF3B"/>
</linearGradient>
<path class="st10" d="M53.6,14.9c0,0-0.6-0.1-0.9,0c-0.3,0-1,0.1-1,0.1l-0.1-1.6l1.9-0.1L53.6,14.9z"/>
<linearGradient id="SVGID_5_" gradientUnits="userSpaceOnUse" x1="53.3803" y1="12.3075" x2="54.7891" y2="12.3075">
	<stop  offset="0" style="stop-color:#D51C5A"/>
	<stop  offset="1" style="stop-color:#FBAF3B"/>
</linearGradient>
<polygon class="st11" points="54.8,13.2 53.6,13.3 53.4,11.3 54.7,11.4 "/>
<linearGradient id="SVGID_6_" gradientUnits="userSpaceOnUse" x1="54.938" y1="51.4402" x2="55.4449" y2="12.0145">
	<stop  offset="0" style="stop-color:#D51C5A"/>
	<stop  offset="1" style="stop-color:#FBAF3B"/>
</linearGradient>
<rect x="54.8" y="13.1" class="st12" width="1.3" height="1.2"/>
<linearGradient id="SVGID_7_" gradientUnits="userSpaceOnUse" x1="54.783" y1="55.2282" x2="55.3783" y2="8.9347">
	<stop  offset="0" style="stop-color:#D51C5A"/>
	<stop  offset="1" style="stop-color:#FBAF3B"/>
</linearGradient>
<polygon class="st13" points="56,11.5 54.7,11.4 54.7,10.1 56,10.2 "/>
<linearGradient id="SVGID_8_" gradientUnits="userSpaceOnUse" x1="55.9875" y1="12.4611" x2="57.1644" y2="12.4611">
	<stop  offset="0" style="stop-color:#D51C5A"/>
	<stop  offset="1" style="stop-color:#FBAF3B"/>
</linearGradient>
<polygon class="st14" points="57.2,13.3 56.1,13.2 56,11.6 57.1,11.8 "/>
<linearGradient id="SVGID_9_" gradientUnits="userSpaceOnUse" x1="57.2124" y1="34.5893" x2="57.5198" y2="10.6868">
	<stop  offset="0" style="stop-color:#D51C5A"/>
	<stop  offset="1" style="stop-color:#FBAF3B"/>
</linearGradient>
<polygon class="st15" points="57.8,12 57.1,12 57.1,11.3 57.9,11.4 "/>
<linearGradient id="SVGID_10_" gradientUnits="userSpaceOnUse" x1="57.2384" y1="36.1888" x2="57.5458" y2="12.2862">
	<stop  offset="0" style="stop-color:#D51C5A"/>
	<stop  offset="1" style="stop-color:#FBAF3B"/>
</linearGradient>
<polygon class="st16" points="57.9,13.6 57.1,13.6 57.2,12.9 57.9,13 "/>
<linearGradient id="SVGID_11_" gradientUnits="userSpaceOnUse" x1="58.6048" y1="35.5915" x2="58.9096" y2="11.8886">
	<stop  offset="0" style="stop-color:#D51C5A"/>
	<stop  offset="1" style="stop-color:#FBAF3B"/>
</linearGradient>
<polygon class="st17" points="59.1,13.2 58.6,13.2 58.7,12.5 59.2,12.5 "/>
<linearGradient id="SVGID_12_" gradientUnits="userSpaceOnUse" x1="57.8796" y1="12.4588" x2="58.5037" y2="12.4588">
	<stop  offset="0" style="stop-color:#D51C5A"/>
	<stop  offset="1" style="stop-color:#FBAF3B"/>
</linearGradient>
<polygon class="st18" points="58.4,12.8 57.9,12.8 57.9,12.1 58.5,12.1 "/>
<linearGradient id="SVGID_13_" gradientUnits="userSpaceOnUse" x1="59.4075" y1="13.3528" x2="59.7131" y2="13.3528">
	<stop  offset="0" style="stop-color:#D51C5A"/>
	<stop  offset="1" style="stop-color:#FBAF3B"/>
</linearGradient>
<polygon class="st19" points="59.7,13.5 59.4,13.5 59.4,13.2 59.7,13.2 "/>
<linearGradient id="SVGID_14_" gradientUnits="userSpaceOnUse" x1="51.683" y1="72.9695" x2="52.5229" y2="7.6522">
	<stop  offset="0" style="stop-color:#D51C5A"/>
	<stop  offset="1" style="stop-color:#FBAF3B"/>
</linearGradient>
<path class="st20" d="M53.4,11.3h-1.7l0-1.8c0,0,0.6-0.1,0.9-0.1c0.2,0,0.8,0.1,0.8,0.1L53.4,11.3z"/>
</svg>
