<svg width="30" height="30" viewBox="0 0 30 30" fill="none" xmlns="http://www.w3.org/2000/svg">
<g clip-path="url(#clip0)">
<path d="M15 30C23.2843 30 30 23.2843 30 15C30 6.71573 23.2843 0 15 0C6.71573 0 0 6.71573 0 15C0 23.2843 6.71573 30 15 30Z" fill="#245EDE"/>
<g opacity="0.4">
<path opacity="0.4" d="M18.234 0.354978C15.7539 -0.193392 13.1752 -0.103013 10.7396 0.617643C8.30404 1.3383 6.09134 2.66563 4.30895 4.4752C2.52657 6.28476 1.23289 8.5173 0.549177 10.9635C-0.134532 13.4097 -0.185871 15.9895 0.399973 18.461L18.234 0.354978Z" fill="url(#paint0_linear)"/>
<path opacity="0.4" d="M12.7639 29.83C15.0991 30.1809 17.4841 29.9754 19.7249 29.2305C21.9656 28.4855 23.9989 27.222 25.6591 25.5429C27.3194 23.8637 28.5597 21.8163 29.2793 19.5673C29.9988 17.3182 30.1772 14.931 29.7999 12.6L12.7639 29.83Z" fill="url(#paint1_linear)"/>
</g>
<path d="M22.7999 15.4C22.3999 15 21.5999 14 21.3999 13.2C21.1999 12.4 21.1999 10.4 19.5999 8.80001C17.9999 7.20001 15.5999 7.20001 15.5999 7.20001V12.726C16.1805 12.9137 16.6766 13.2997 17.0014 13.8163C17.3261 14.3329 17.4588 14.9473 17.3762 15.5519C17.2936 16.1565 17.0009 16.7128 16.5495 17.1234C16.0981 17.534 15.5166 17.7727 14.9069 17.7977C14.2972 17.8228 13.6981 17.6326 13.2145 17.2605C12.7309 16.8884 12.3936 16.358 12.2616 15.7622C12.1297 15.1664 12.2115 14.5432 12.4927 14.0017C12.7739 13.4601 13.2367 13.0348 13.7999 12.8V7.20001C13.7999 7.20001 11.3999 7.20001 9.39992 9.40001C7.39992 11.6 7.99992 15.4 8.99992 17.2C9.99992 19 10.1999 19.8 10.1999 21V23.2H17.9999V21.4C17.9999 21.4 19.1999 21.6 20.1999 21.2C21.1999 20.8 21.3999 19.8 21.3999 19V17.2C21.8223 17.0483 22.2251 16.8469 22.5999 16.6C23.1999 16.2 23.1999 15.8 22.7999 15.4Z" fill="white"/>
<path d="M14.8119 13.296C14.4362 13.296 14.0688 13.4074 13.7564 13.6162C13.4439 13.825 13.2004 14.1217 13.0566 14.4689C12.9128 14.8161 12.8751 15.1981 12.9485 15.5667C13.0218 15.9352 13.2027 16.2738 13.4684 16.5395C13.7342 16.8052 14.0727 16.9862 14.4413 17.0595C14.8098 17.1328 15.1919 17.0952 15.539 16.9514C15.8862 16.8076 16.183 16.564 16.3917 16.2516C16.6005 15.9391 16.7119 15.5718 16.7119 15.196C16.7119 14.9465 16.6628 14.6994 16.5673 14.4689C16.4718 14.2384 16.3319 14.0289 16.1554 13.8525C15.979 13.6761 15.7696 13.5361 15.539 13.4406C15.3085 13.3451 15.0615 13.296 14.8119 13.296ZM14.8119 16.396C14.5746 16.396 14.3426 16.3256 14.1453 16.1937C13.9479 16.0619 13.7941 15.8745 13.7033 15.6552C13.6125 15.4359 13.5887 15.1947 13.635 14.9619C13.6813 14.7291 13.7956 14.5153 13.9634 14.3475C14.1312 14.1796 14.3451 14.0653 14.5778 14.019C14.8106 13.9727 15.0519 13.9965 15.2712 14.0873C15.4904 14.1782 15.6779 14.332 15.8097 14.5293C15.9416 14.7266 16.0119 14.9587 16.0119 15.196C16.0125 15.3539 15.9818 15.5104 15.9218 15.6564C15.8617 15.8025 15.7734 15.9352 15.6619 16.0471C15.5504 16.159 15.4179 16.2477 15.2721 16.3083C15.1262 16.3688 14.9699 16.4 14.8119 16.4V16.396Z" fill="white"/>
<path d="M14.8119 15.696C15.0881 15.696 15.3119 15.4721 15.3119 15.196C15.3119 14.9198 15.0881 14.696 14.8119 14.696C14.5358 14.696 14.3119 14.9198 14.3119 15.196C14.3119 15.4721 14.5358 15.696 14.8119 15.696Z" fill="white"/>
</g>
<defs>
<linearGradient id="paint0_linear" x1="19.8436" y1="3.10034" x2="4.15685" y2="10.097" gradientUnits="userSpaceOnUse">
<stop stop-color="white"/>
<stop offset="0.13" stop-color="white" stop-opacity="0.8"/>
<stop offset="0.31" stop-color="white" stop-opacity="0.56"/>
<stop offset="0.48" stop-color="white" stop-opacity="0.36"/>
<stop offset="0.64" stop-color="white" stop-opacity="0.2"/>
<stop offset="0.78" stop-color="white" stop-opacity="0.09"/>
<stop offset="0.91" stop-color="white" stop-opacity="0.02"/>
<stop offset="1" stop-color="white" stop-opacity="0"/>
</linearGradient>
<linearGradient id="paint1_linear" x1="23.4059" y1="29.998" x2="19.3879" y2="13.368" gradientUnits="userSpaceOnUse">
<stop stop-color="white"/>
<stop offset="0.02" stop-color="white" stop-opacity="0.93"/>
<stop offset="0.09" stop-color="white" stop-opacity="0.74"/>
<stop offset="0.17" stop-color="white" stop-opacity="0.56"/>
<stop offset="0.25" stop-color="white" stop-opacity="0.41"/>
<stop offset="0.33" stop-color="white" stop-opacity="0.28"/>
<stop offset="0.43" stop-color="white" stop-opacity="0.18"/>
<stop offset="0.53" stop-color="white" stop-opacity="0.1"/>
<stop offset="0.64" stop-color="white" stop-opacity="0.04"/>
<stop offset="0.77" stop-color="white" stop-opacity="0.01"/>
<stop offset="1" stop-color="white" stop-opacity="0"/>
</linearGradient>
<clipPath id="clip0">
<rect width="30" height="30" fill="white"/>
</clipPath>
</defs>
</svg>
