<svg width="150" height="150" viewBox="0 0 150 150" fill="none" xmlns="http://www.w3.org/2000/svg">
<rect x="0.5" y="0.5" width="149" height="149" rx="74.5" stroke="url(#paint0_linear)"/>
<g clip-path="url(#clip0)">
<path d="M88.3273 105.029C88.3273 105.029 88.3273 98.7519 88.3273 95.1248C88.3256 90.7501 89.6195 86.4758 92.0411 82.8556C92.0411 82.8556 65.9895 83.5531 65.8176 81.2443C65.6457 78.9355 65.3431 55.7363 67.4407 53.8321C69.5383 51.9279 72.7706 48.252 72.7706 48.252C72.7706 48.252 60.914 44.4226 54.4355 55.1922C50.6942 61.414 51.7396 65.5503 51.1894 67.029C50.6392 68.5077 45.1167 76.0199 44.9998 77.3871C44.8828 78.7542 46.1208 80.4561 48.6998 81.4815C51.2788 82.5068 51.7396 82.3952 51.8771 85.3527C52.0147 88.3101 50.2816 95.9618 56.7876 97.9846C58.9196 98.6821 63.665 97.9846 63.8575 98.7798C64.0501 99.5749 63.8575 105.057 63.8575 105.057L88.3273 105.029Z" fill="url(#paint1_linear)"/>
<path fill-rule="evenodd" clip-rule="evenodd" d="M64.416 54.8504C64.416 53.8563 65.2219 53.0504 66.216 53.0504H93.1479C94.142 53.0504 94.9479 53.8563 94.9479 54.8504V82.165C94.9479 83.1591 94.142 83.965 93.1479 83.965H66.216C65.2219 83.965 64.416 83.1591 64.416 82.165V54.8504ZM68.016 56.6504V80.365H91.3479V56.6504H68.016Z" fill="url(#paint2_linear)"/>
<path fill-rule="evenodd" clip-rule="evenodd" d="M102.475 44.5381C103.148 44.8166 103.587 45.4731 103.587 46.2013V72.3789C103.587 72.8176 103.426 73.2412 103.136 73.5701L94.4981 83.3562C94.0028 83.9173 93.2119 84.1134 92.5119 83.8486C91.8118 83.5839 91.3486 82.9135 91.3486 82.165V54.8505C91.3486 54.3735 91.538 53.916 91.875 53.5785L100.513 44.9293C101.028 44.414 101.802 44.2596 102.475 44.5381ZM94.9486 55.5954V77.4058L99.9866 71.6982V50.5509L94.9486 55.5954Z" fill="url(#paint3_linear)"/>
<path fill-rule="evenodd" clip-rule="evenodd" d="M74.7654 44.757C75.0967 44.4563 75.528 44.2897 75.9754 44.2897H101.786C102.51 44.2897 103.163 44.723 103.445 45.3897C103.726 46.0563 103.581 46.8267 103.076 47.3452L94.5481 56.106C94.2092 56.4541 93.7441 56.6504 93.2583 56.6504H66.3264C65.5826 56.6504 64.9154 56.1929 64.6473 55.499C64.3793 54.8051 64.5657 54.0178 65.1165 53.5178L74.7654 44.757ZM76.6707 47.8897L70.9867 53.0504H92.4985L97.5221 47.8897H76.6707Z" fill="url(#paint4_linear)"/>
<path d="M77.4612 51.8372C78.2057 51.8372 78.8092 51.2251 78.8092 50.47C78.8092 49.715 78.2057 49.1029 77.4612 49.1029C76.7168 49.1029 76.1133 49.715 76.1133 50.47C76.1133 51.2251 76.7168 51.8372 77.4612 51.8372Z" fill="url(#paint5_linear)"/>
<path d="M77.4612 59.8585C78.2057 59.8585 78.8092 59.2464 78.8092 58.4914C78.8092 57.7364 78.2057 57.1243 77.4612 57.1243C76.7168 57.1243 76.1133 57.7364 76.1133 58.4914C76.1133 59.2464 76.7168 59.8585 77.4612 59.8585Z" fill="url(#paint6_linear)"/>
<path d="M77.4612 64.0715C78.2057 64.0715 78.8092 63.4594 78.8092 62.7044C78.8092 61.9494 78.2057 61.3373 77.4612 61.3373C76.7168 61.3373 76.1133 61.9494 76.1133 62.7044C76.1133 63.4594 76.7168 64.0715 77.4612 64.0715Z" fill="url(#paint7_linear)"/>
<path d="M77.4612 68.2845C78.2057 68.2845 78.8092 67.6725 78.8092 66.9174C78.8092 66.1624 78.2057 65.5503 77.4612 65.5503C76.7168 65.5503 76.1133 66.1624 76.1133 66.9174C76.1133 67.6725 76.7168 68.2845 77.4612 68.2845Z" fill="url(#paint8_linear)"/>
<path d="M77.4612 72.4975C78.2057 72.4975 78.8092 71.8855 78.8092 71.1304C78.8092 70.3754 78.2057 69.7633 77.4612 69.7633C76.7168 69.7633 76.1133 70.3754 76.1133 71.1304C76.1133 71.8855 76.7168 72.4975 77.4612 72.4975Z" fill="url(#paint9_linear)"/>
<path d="M74.4212 75.4968C75.1657 75.4968 75.7692 74.8847 75.7692 74.1297C75.7692 73.3747 75.1657 72.7626 74.4212 72.7626C73.6767 72.7626 73.0732 73.3747 73.0732 74.1297C73.0732 74.8847 73.6767 75.4968 74.4212 75.4968Z" fill="url(#paint10_linear)"/>
<path d="M71.4163 78.4264C72.1608 78.4264 72.7643 77.8143 72.7643 77.0593C72.7643 76.3042 72.1608 75.6921 71.4163 75.6921C70.6719 75.6921 70.0684 76.3042 70.0684 77.0593C70.0684 77.8143 70.6719 78.4264 71.4163 78.4264Z" fill="url(#paint11_linear)"/>
<path d="M68.3694 81.2582C69.1139 81.2582 69.7174 80.6461 69.7174 79.8911C69.7174 79.136 69.1139 78.5239 68.3694 78.5239C67.625 78.5239 67.0215 79.136 67.0215 79.8911C67.0215 80.6461 67.625 81.2582 68.3694 81.2582Z" fill="url(#paint12_linear)"/>
<path d="M81.5325 72.4975C82.277 72.4975 82.8805 71.8855 82.8805 71.1304C82.8805 70.3754 82.277 69.7633 81.5325 69.7633C80.7881 69.7633 80.1846 70.3754 80.1846 71.1304C80.1846 71.8855 80.7881 72.4975 81.5325 72.4975Z" fill="url(#paint13_linear)"/>
<path d="M85.597 72.4975C86.3415 72.4975 86.945 71.8855 86.945 71.1304C86.945 70.3754 86.3415 69.7633 85.597 69.7633C84.8525 69.7633 84.249 70.3754 84.249 71.1304C84.249 71.8855 84.8525 72.4975 85.597 72.4975Z" fill="url(#paint14_linear)"/>
<path d="M89.6683 72.4975C90.4127 72.4975 91.0163 71.8855 91.0163 71.1304C91.0163 70.3754 90.4127 69.7633 89.6683 69.7633C88.9238 69.7633 88.3203 70.3754 88.3203 71.1304C88.3203 71.8855 88.9238 72.4975 89.6683 72.4975Z" fill="url(#paint15_linear)"/>
<path d="M97.6878 72.4975C98.4323 72.4975 99.0358 71.8855 99.0358 71.1304C99.0358 70.3754 98.4323 69.7633 97.6878 69.7633C96.9433 69.7633 96.3398 70.3754 96.3398 71.1304C96.3398 71.8855 96.9433 72.4975 97.6878 72.4975Z" fill="url(#paint16_linear)"/>
</g>
<defs>
<linearGradient id="paint0_linear" x1="25" y1="-2.44158e-05" x2="147.544" y2="9.67454" gradientUnits="userSpaceOnUse">
<stop stop-color="#F15822"/>
<stop offset="1" stop-color="#F7931E"/>
</linearGradient>
<linearGradient id="paint1_linear" x1="52.8337" y1="47.5906" x2="91.3495" y2="50.0801" gradientUnits="userSpaceOnUse">
<stop stop-color="#F15822"/>
<stop offset="1" stop-color="#F7931E"/>
</linearGradient>
<linearGradient id="paint2_linear" x1="69.5047" y1="53.0504" x2="94.4519" y2="54.9955" gradientUnits="userSpaceOnUse">
<stop stop-color="#F15822"/>
<stop offset="1" stop-color="#F7931E"/>
</linearGradient>
<linearGradient id="paint3_linear" x1="93.3883" y1="44.4012" x2="103.443" y2="44.6468" gradientUnits="userSpaceOnUse">
<stop stop-color="#F15822"/>
<stop offset="1" stop-color="#F7931E"/>
</linearGradient>
<linearGradient id="paint4_linear" x1="71.0364" y1="44.2897" x2="101.264" y2="51.8308" gradientUnits="userSpaceOnUse">
<stop stop-color="#F15822"/>
<stop offset="1" stop-color="#F7931E"/>
</linearGradient>
<linearGradient id="paint5_linear" x1="76.5626" y1="49.1029" x2="78.7655" y2="49.2744" gradientUnits="userSpaceOnUse">
<stop stop-color="#F15822"/>
<stop offset="1" stop-color="#F7931E"/>
</linearGradient>
<linearGradient id="paint6_linear" x1="76.5626" y1="57.1243" x2="78.7655" y2="57.2957" gradientUnits="userSpaceOnUse">
<stop stop-color="#F15822"/>
<stop offset="1" stop-color="#F7931E"/>
</linearGradient>
<linearGradient id="paint7_linear" x1="76.5626" y1="61.3373" x2="78.7655" y2="61.5088" gradientUnits="userSpaceOnUse">
<stop stop-color="#F15822"/>
<stop offset="1" stop-color="#F7931E"/>
</linearGradient>
<linearGradient id="paint8_linear" x1="76.5626" y1="65.5503" x2="78.7655" y2="65.7218" gradientUnits="userSpaceOnUse">
<stop stop-color="#F15822"/>
<stop offset="1" stop-color="#F7931E"/>
</linearGradient>
<linearGradient id="paint9_linear" x1="76.5626" y1="69.7633" x2="78.7655" y2="69.9348" gradientUnits="userSpaceOnUse">
<stop stop-color="#F15822"/>
<stop offset="1" stop-color="#F7931E"/>
</linearGradient>
<linearGradient id="paint10_linear" x1="73.5226" y1="72.7626" x2="75.7254" y2="72.934" gradientUnits="userSpaceOnUse">
<stop stop-color="#F15822"/>
<stop offset="1" stop-color="#F7931E"/>
</linearGradient>
<linearGradient id="paint11_linear" x1="70.5177" y1="75.6921" x2="72.7205" y2="75.8636" gradientUnits="userSpaceOnUse">
<stop stop-color="#F15822"/>
<stop offset="1" stop-color="#F7931E"/>
</linearGradient>
<linearGradient id="paint12_linear" x1="67.4708" y1="78.5239" x2="69.6737" y2="78.6954" gradientUnits="userSpaceOnUse">
<stop stop-color="#F15822"/>
<stop offset="1" stop-color="#F7931E"/>
</linearGradient>
<linearGradient id="paint13_linear" x1="80.6339" y1="69.7633" x2="82.8368" y2="69.9348" gradientUnits="userSpaceOnUse">
<stop stop-color="#F15822"/>
<stop offset="1" stop-color="#F7931E"/>
</linearGradient>
<linearGradient id="paint14_linear" x1="84.6983" y1="69.7633" x2="86.9012" y2="69.9348" gradientUnits="userSpaceOnUse">
<stop stop-color="#F15822"/>
<stop offset="1" stop-color="#F7931E"/>
</linearGradient>
<linearGradient id="paint15_linear" x1="88.7696" y1="69.7633" x2="90.9725" y2="69.9348" gradientUnits="userSpaceOnUse">
<stop stop-color="#F15822"/>
<stop offset="1" stop-color="#F7931E"/>
</linearGradient>
<linearGradient id="paint16_linear" x1="96.7892" y1="69.7633" x2="98.992" y2="69.9348" gradientUnits="userSpaceOnUse">
<stop stop-color="#F15822"/>
<stop offset="1" stop-color="#F7931E"/>
</linearGradient>
<clipPath id="clip0">
<rect width="57.8182" height="60" fill="white" transform="translate(45 45.0435)"/>
</clipPath>
</defs>
</svg>
