<svg width="30" height="30" viewBox="0 0 30 30" fill="none" xmlns="http://www.w3.org/2000/svg">
<path d="M15 30C23.2843 30 30 23.2843 30 15C30 6.71573 23.2843 0 15 0C6.71573 0 0 6.71573 0 15C0 23.2843 6.71573 30 15 30Z" fill="url(#paint0_linear)"/>
<path d="M21 9.8H9.4V11.8H21V9.8Z" fill="white"/>
<path d="M21 14.6H9.4V16.6H21V14.6Z" fill="white"/>
<path d="M17 20H9.4V21.6H17V20Z" fill="white"/>
<path d="M21 21H16.6V21.6H21V21Z" fill="white"/>
<path d="M11 14.6H9.4V21.6H11V14.6Z" fill="white"/>
<path d="M17 14.6H15.4V21.6H17V14.6Z" fill="white"/>
<path d="M21 14.6H19.4V21.6H21V14.6Z" fill="white"/>
<path d="M9.8 11.6C9.8 11.6 8.8 14.6 10 15" stroke="white" stroke-width="4" stroke-linecap="round" stroke-linejoin="round"/>
<path d="M20.61 11.6C20.61 11.6 21.61 14.6 20.41 15" stroke="white" stroke-width="4" stroke-linecap="round" stroke-linejoin="round"/>
<path d="M11.6 14.2V11.8H11V14.2C11 14.3061 10.9579 14.4078 10.8828 14.4829C10.8078 14.5579 10.7061 14.6 10.6 14.6H12.054C11.9974 14.6061 11.9402 14.6004 11.8859 14.5832C11.8317 14.566 11.7816 14.5376 11.7389 14.5C11.6962 14.4624 11.6618 14.4163 11.6379 14.3646C11.614 14.313 11.6011 14.2569 11.6 14.2Z" fill="white"/>
<path d="M13.55 14.2V11.8H12.95V14.2C12.95 14.3061 12.9079 14.4078 12.8328 14.4828C12.7578 14.5579 12.6561 14.6 12.55 14.6H14C13.9437 14.6055 13.8869 14.5994 13.8331 14.5819C13.7794 14.5644 13.7298 14.536 13.6875 14.4984C13.6453 14.4608 13.6112 14.4149 13.5876 14.3636C13.5639 14.3122 13.5511 14.2565 13.55 14.2Z" fill="white"/>
<path d="M15.5 14.2V11.8H14.9V14.2C14.9 14.3061 14.8579 14.4078 14.7828 14.4829C14.7078 14.5579 14.6061 14.6 14.5 14.6H15.954C15.8974 14.6061 15.8402 14.6004 15.7859 14.5832C15.7317 14.566 15.6816 14.5376 15.6389 14.5C15.5962 14.4624 15.5618 14.4163 15.5379 14.3646C15.514 14.313 15.5011 14.2569 15.5 14.2Z" fill="white"/>
<path d="M17.45 14.2V11.8H16.85V14.2C16.85 14.3061 16.8079 14.4078 16.7328 14.4829C16.6578 14.5579 16.5561 14.6 16.45 14.6H17.904C17.8474 14.6061 17.7902 14.6004 17.7359 14.5832C17.6817 14.566 17.6316 14.5376 17.5889 14.5C17.5462 14.4624 17.5118 14.4163 17.4879 14.3646C17.464 14.313 17.4511 14.2569 17.45 14.2Z" fill="white"/>
<path d="M19.4 14.2V11.8H18.8V14.2C18.8 14.3061 18.7579 14.4078 18.6828 14.4829C18.6078 14.5579 18.5061 14.6 18.4 14.6H19.854C19.7974 14.6061 19.7402 14.6004 19.6859 14.5832C19.6317 14.566 19.5816 14.5376 19.5389 14.5C19.4962 14.4624 19.4618 14.4163 19.4379 14.3646C19.414 14.313 19.4011 14.2569 19.4 14.2Z" fill="white"/>
<defs>
<linearGradient id="paint0_linear" x1="15" y1="30" x2="15" y2="0" gradientUnits="userSpaceOnUse">
<stop stop-color="#F85977"/>
<stop offset="1" stop-color="#F7931E"/>
</linearGradient>
</defs>
</svg>
