<svg width="30" height="30" viewBox="0 0 30 30" fill="none" xmlns="http://www.w3.org/2000/svg">
<path d="M15 30C23.2843 30 30 23.2843 30 15C30 6.71573 23.2843 0 15 0C6.71573 0 0 6.71573 0 15C0 23.2843 6.71573 30 15 30Z" fill="url(#paint0_linear)"/>
<path d="M11.9999 9.6C11.5999 9.2 11.1999 8.8 11.9999 8.8C12.7999 8.8 13.1999 9 13.5999 8.6C13.9999 8.2 14.3999 7.8 14.9999 8C15.5999 8.2 15.5999 8.6 16.3999 8.6C17.1999 8.6 17.7999 8.4 17.5999 8.8C17.3999 9.2 16.1999 10.2 15.7999 10.2C15.3999 10.2 14.9999 9.8 14.7999 9.6C14.5999 9.4 13.9999 9.6 13.5999 10C13.1999 10.4 12.5999 10.2 11.9999 9.6Z" fill="white"/>
<path d="M12.2 10.2C12.2 10.2 12.6 10.8 13.2 10.8C13.8 10.8 14 10.2 14.4 10.2C14.8 10.2 15 10.6 15.4 10.8C15.8 11 16.8 10.2 17 9.99999C17.2 9.79999 17.8 9.19999 17.8 9.39999C17.8 9.59999 17.4 9.99999 17.2 10.6C17 11.2 17.2 12 16.8 12.2C16.4 12.4 15 13 13.8 12.6C12.6 12.2 12.8 11.8 12.6 11.4C12.4 11 11.6 9.79999 12.2 10.2Z" fill="white"/>
<path d="M17.516 11.658C17.638 11.342 18.4 11.2 18.8 11.2C19.2 11.2 20.2 11.4 20.4 11.6C20.6 11.8 20.4 12.2 19.8 12C19.3822 11.8709 18.9517 11.7871 18.516 11.75C18.9761 11.9816 19.4071 12.267 19.8 12.6C20.2 13 19.948 13.48 19.6 13.2C19.252 12.92 18.666 12.4 18.066 12.2C17.466 12 17.462 11.8 17.516 11.658Z" fill="white"/>
<path d="M20.8 15.634C19.9 13.734 18.034 12.834 17.8 12.65C17.566 12.466 17.35 12.3 17.15 12.516C16.95 12.732 16.266 13.216 15 13.284C14.1788 13.3454 13.3586 13.1535 12.65 12.734C12.434 12.586 12.326 12.49 11.816 12.816C8.56596 14.9 8.41596 18.35 9.36596 20C10.316 21.65 12.534 21.634 14.066 21.7C15.598 21.766 17.75 21.95 19.684 21.05C21.618 20.15 21.7 17.534 20.8 15.634ZM15.358 19.564V20.296H14.776V19.6C14.3742 19.5924 13.9802 19.4874 13.628 19.294L13.828 18.624C14.1628 18.8211 14.5434 18.9273 14.932 18.932C15.38 18.932 15.686 18.714 15.686 18.38C15.686 18.046 15.436 17.856 14.912 17.664C14.164 17.4 13.678 17.054 13.678 16.4C13.678 15.79 14.106 15.322 14.816 15.2V14.504H15.4V15.158C15.7389 15.1625 16.0723 15.2454 16.374 15.4L16.174 16.05C15.8818 15.8883 15.5538 15.8024 15.22 15.8C14.724 15.8 14.55 16.058 14.55 16.296C14.55 16.586 14.802 16.754 15.41 16.992C16.21 17.29 16.552 17.668 16.552 18.304C16.552 18.906 16.134 19.434 15.358 19.564Z" fill="white"/>
<defs>
<linearGradient id="paint0_linear" x1="15" y1="30" x2="15" y2="0" gradientUnits="userSpaceOnUse">
<stop stop-color="#F85977"/>
<stop offset="1" stop-color="#F7931E"/>
</linearGradient>
</defs>
</svg>
