<svg width="30" height="30" viewBox="0 0 30 30" fill="none" xmlns="http://www.w3.org/2000/svg">
<g clip-path="url(#clip0)">
<path d="M15 30C23.2843 30 30 23.2843 30 15C30 6.71573 23.2843 0 15 0C6.71573 0 0 6.71573 0 15C0 23.2843 6.71573 30 15 30Z" fill="url(#paint0_linear)"/>
<g opacity="0.4">
<path opacity="0.4" d="M18.234 0.354971C15.7539 -0.193399 13.1752 -0.10302 10.7396 0.617636C8.30404 1.33829 6.09134 2.66562 4.30895 4.47519C2.52657 6.28476 1.23289 8.5173 0.549177 10.9635C-0.134532 13.4097 -0.185871 15.9895 0.399973 18.461L18.234 0.354971Z" fill="url(#paint1_linear)"/>
<path opacity="0.4" d="M12.7639 29.83C15.0991 30.1809 17.4841 29.9754 19.7249 29.2305C21.9656 28.4855 23.9989 27.222 25.6591 25.5429C27.3194 23.8637 28.5597 21.8163 29.2793 19.5673C29.9988 17.3182 30.1772 14.931 29.7999 12.6L12.7639 29.83Z" fill="url(#paint2_linear)"/>
</g>
<path d="M9.4 9.6C9.4 9.6 12.6 9.4 15.4 10.4V20C13.4209 19.6282 11.4135 19.4274 9.4 19.4V9.6Z" stroke="white" stroke-width="4" stroke-linecap="round" stroke-linejoin="round"/>
<path d="M9.4 9.6C9.4 9.6 12.6 9.4 15.4 10.4V20C13.4209 19.6282 11.4135 19.4274 9.4 19.4V9.6Z" stroke="white" stroke-width="4" stroke-linecap="round" stroke-linejoin="round"/>
<path d="M21.4 9.6C21.4 9.6 18.2 9.4 15.4 10.4V20C17.3791 19.6282 19.3865 19.4274 21.4 19.4V9.6Z" stroke="white" stroke-width="4" stroke-linecap="round" stroke-linejoin="round"/>
<path d="M22.4 11.21C22.136 11.21 21.8 11.23 21.4 11.25V19.4C19.3865 19.4274 17.3791 19.6282 15.4 20C13.4209 19.6282 11.4135 19.4274 9.4 19.4V11.25C9.016 11.23 8.68 11.218 8.418 11.21C8.33771 11.2076 8.25774 11.2213 8.18286 11.2504C8.10797 11.2795 8.03969 11.3233 7.98205 11.3792C7.92442 11.4352 7.8786 11.5022 7.84733 11.5762C7.81606 11.6502 7.79996 11.7297 7.8 11.81V20.01C7.79996 20.1667 7.86125 20.3173 7.97076 20.4294C8.08027 20.5415 8.22931 20.6063 8.386 20.61C11.088 20.69 14.666 21.276 15.302 21.384C15.3683 21.3944 15.4357 21.3944 15.502 21.384C16.138 21.276 19.716 20.69 22.418 20.61C22.5747 20.6063 22.7237 20.5415 22.8332 20.4294C22.9428 20.3173 23.004 20.1667 23.004 20.01V11.8C23.0014 11.6419 22.9364 11.4913 22.8233 11.3808C22.7102 11.2703 22.5581 11.2089 22.4 11.21Z" fill="white"/>
<path d="M18.142 17.534V16.844C17.7419 16.8359 17.3499 16.7302 17 16.536L17.2 15.866C17.5347 16.0638 17.9153 16.1707 18.304 16.176C18.752 16.176 19.056 15.958 19.056 15.622C19.056 15.286 18.8 15.1 18.27 14.906C17.53 14.638 17.044 14.294 17.044 13.64C17.044 13.04 17.472 12.562 18.182 12.44V11.744H18.766V12.4C19.1046 12.4037 19.4378 12.4852 19.74 12.638L19.54 13.288C19.2445 13.1281 18.9139 13.0442 18.578 13.044C18.082 13.044 17.908 13.302 17.908 13.54C17.908 13.83 18.16 13.998 18.768 14.236C19.568 14.532 19.91 14.91 19.91 15.546C19.91 16.146 19.492 16.674 18.71 16.806V17.536L18.142 17.534Z" fill="white"/>
</g>
<defs>
<linearGradient id="paint0_linear" x1="15" y1="30" x2="15" y2="0" gradientUnits="userSpaceOnUse">
<stop stop-color="#59B9FF"/>
<stop offset="0.25" stop-color="#4CA9FF"/>
<stop offset="0.71" stop-color="#3991FE"/>
<stop offset="0.99" stop-color="#3288FE"/>
</linearGradient>
<linearGradient id="paint1_linear" x1="19.8418" y1="3.10234" x2="4.15708" y2="10.099" gradientUnits="userSpaceOnUse">
<stop stop-color="white"/>
<stop offset="0.13" stop-color="white" stop-opacity="0.8"/>
<stop offset="0.31" stop-color="white" stop-opacity="0.56"/>
<stop offset="0.48" stop-color="white" stop-opacity="0.36"/>
<stop offset="0.64" stop-color="white" stop-opacity="0.2"/>
<stop offset="0.78" stop-color="white" stop-opacity="0.09"/>
<stop offset="0.91" stop-color="white" stop-opacity="0.02"/>
<stop offset="1" stop-color="white" stop-opacity="0"/>
</linearGradient>
<linearGradient id="paint2_linear" x1="23.4059" y1="29.998" x2="19.3879" y2="13.368" gradientUnits="userSpaceOnUse">
<stop stop-color="white"/>
<stop offset="0.02" stop-color="white" stop-opacity="0.93"/>
<stop offset="0.09" stop-color="white" stop-opacity="0.74"/>
<stop offset="0.17" stop-color="white" stop-opacity="0.56"/>
<stop offset="0.25" stop-color="white" stop-opacity="0.41"/>
<stop offset="0.33" stop-color="white" stop-opacity="0.28"/>
<stop offset="0.43" stop-color="white" stop-opacity="0.18"/>
<stop offset="0.53" stop-color="white" stop-opacity="0.1"/>
<stop offset="0.64" stop-color="white" stop-opacity="0.04"/>
<stop offset="0.77" stop-color="white" stop-opacity="0.01"/>
<stop offset="1" stop-color="white" stop-opacity="0"/>
</linearGradient>
<clipPath id="clip0">
<rect width="30" height="30" fill="white"/>
</clipPath>
</defs>
</svg>
