<svg width="30" height="30" viewBox="0 0 30 30" fill="none" xmlns="http://www.w3.org/2000/svg">
<g clip-path="url(#clip0)">
<path d="M15 30C23.2843 30 30 23.2843 30 15C30 6.71573 23.2843 0 15 0C6.71573 0 0 6.71573 0 15C0 23.2843 6.71573 30 15 30Z" fill="#245EDE"/>
<g opacity="0.4">
<path opacity="0.4" d="M18.234 0.354978C15.7539 -0.193392 13.1752 -0.103013 10.7396 0.617643C8.30405 1.3383 6.09134 2.66563 4.30896 4.47519C2.52658 6.28476 1.23289 8.5173 0.549183 10.9635C-0.134526 13.4097 -0.185865 15.9895 0.399979 18.461L18.234 0.354978Z" fill="url(#paint0_linear)"/>
<path opacity="0.4" d="M12.7639 29.83C15.0991 30.1809 17.4841 29.9754 19.7249 29.2305C21.9656 28.4855 23.9989 27.222 25.6591 25.5429C27.3194 23.8637 28.5597 21.8163 29.2793 19.5673C29.9988 17.3182 30.1772 14.931 29.7999 12.6L12.7639 29.83Z" fill="url(#paint1_linear)"/>
</g>
<path d="M18.8 21.8C20.5673 21.8 22 20.3673 22 18.6C22 16.8327 20.5673 15.4 18.8 15.4C17.0327 15.4 15.6 16.8327 15.6 18.6C15.6 20.3673 17.0327 21.8 18.8 21.8Z" stroke="white" stroke-width="3" stroke-miterlimit="10"/>
<path d="M19.2 17.2H18.6V20.2H19.2V17.2Z" fill="white"/>
<path d="M17.4 18.4V19H20.4V18.4H17.4Z" fill="white"/>
<path d="M15.5999 18.6C15.5991 18.0383 15.7467 17.4863 16.0279 17C15.7439 16.834 15.5999 16.652 15.5999 16.4C15.5999 15.8 15.5999 15.6 15.7999 15.2C15.9522 14.8746 16.0858 14.5407 16.1999 14.2C16.3266 14.193 16.449 14.1522 16.5545 14.0818C16.66 14.0115 16.7448 13.9142 16.7999 13.8C16.9999 13.4 17.1999 12.6 16.5999 12.8C16.7999 12 16.9999 10.2 16.1999 9.40001C15.3999 8.60001 14.7999 8.60001 13.9999 8.60001C13.1999 8.60001 12.5999 8.60001 11.7999 9.40001C10.9999 10.2 11.1999 12 11.3999 12.8C10.7999 12.6 10.9999 13.4 11.1999 13.8C11.2551 13.9142 11.3399 14.0115 11.4454 14.0818C11.5509 14.1522 11.6733 14.193 11.7999 14.2C11.9141 14.5407 12.0476 14.8746 12.1999 15.2C12.3999 15.6 12.3999 15.8 12.3999 16.4C12.3999 17 11.5999 17.2 9.99994 17.8C8.39993 18.4 8.59993 20.4 8.59993 20.4H16.1539C15.7916 19.8698 15.5985 19.2422 15.5999 18.6Z" fill="white"/>
<path d="M16.658 14.702C16.5642 14.9628 16.4567 15.2185 16.336 15.468C16.2 15.732 16.2 15.8 16.2 16.4C16.2506 16.4508 16.3095 16.4927 16.374 16.524C16.6534 16.1959 16.9966 15.928 17.3827 15.7365C17.7687 15.545 18.1897 15.4339 18.62 15.41C18.641 15.206 18.7022 15.0082 18.8 14.828C18.9445 14.5217 19.0707 14.2072 19.178 13.886C19.2975 13.8793 19.413 13.8407 19.5126 13.7742C19.6121 13.7077 19.692 13.6158 19.744 13.508C19.944 13.13 20.122 12.376 19.556 12.564C19.744 11.808 19.934 10.11 19.178 9.36399C18.422 8.61799 17.852 8.59999 17.096 8.59999C16.8165 8.59099 16.5367 8.60705 16.26 8.64799C16.3869 8.75101 16.5084 8.86049 16.624 8.97599C17.52 9.87199 17.424 11.476 17.298 12.354C17.3636 12.4109 17.419 12.4785 17.462 12.554C17.788 13.08 17.448 13.85 17.336 14.074C17.1945 14.3593 16.9533 14.5828 16.658 14.702Z" fill="white"/>
</g>
<defs>
<linearGradient id="paint0_linear" x1="19.8435" y1="3.10202" x2="4.15675" y2="10.0987" gradientUnits="userSpaceOnUse">
<stop stop-color="white"/>
<stop offset="0.13" stop-color="white" stop-opacity="0.8"/>
<stop offset="0.31" stop-color="white" stop-opacity="0.56"/>
<stop offset="0.48" stop-color="white" stop-opacity="0.36"/>
<stop offset="0.64" stop-color="white" stop-opacity="0.2"/>
<stop offset="0.78" stop-color="white" stop-opacity="0.09"/>
<stop offset="0.91" stop-color="white" stop-opacity="0.02"/>
<stop offset="1" stop-color="white" stop-opacity="0"/>
</linearGradient>
<linearGradient id="paint1_linear" x1="23.4059" y1="29.998" x2="19.3879" y2="13.368" gradientUnits="userSpaceOnUse">
<stop stop-color="white"/>
<stop offset="0.02" stop-color="white" stop-opacity="0.93"/>
<stop offset="0.09" stop-color="white" stop-opacity="0.74"/>
<stop offset="0.17" stop-color="white" stop-opacity="0.56"/>
<stop offset="0.25" stop-color="white" stop-opacity="0.41"/>
<stop offset="0.33" stop-color="white" stop-opacity="0.28"/>
<stop offset="0.43" stop-color="white" stop-opacity="0.18"/>
<stop offset="0.53" stop-color="white" stop-opacity="0.1"/>
<stop offset="0.64" stop-color="white" stop-opacity="0.04"/>
<stop offset="0.77" stop-color="white" stop-opacity="0.01"/>
<stop offset="1" stop-color="white" stop-opacity="0"/>
</linearGradient>
<clipPath id="clip0">
<rect width="30" height="30" fill="white"/>
</clipPath>
</defs>
</svg>
