<svg width="15" height="24" viewBox="0 0 15 24" fill="none" xmlns="http://www.w3.org/2000/svg">
<path d="M13.989 11.0635L3.09688 0.383412C2.84496 0.136194 2.50866 0 2.15008 0C1.7915 0 1.45521 0.136194 1.20329 0.383412L0.401163 1.16975C-0.120787 1.68213 -0.120787 2.51491 0.401163 3.02651L9.54753 11.995L0.391015 20.9735C0.139094 21.2207 0 21.5503 0 21.9017C0 22.2535 0.139094 22.583 0.391015 22.8305L1.19314 23.6166C1.44526 23.8638 1.78136 24 2.13994 24C2.49851 24 2.83481 23.8638 3.08673 23.6166L13.989 12.9267C14.2415 12.6787 14.3802 12.3476 14.3794 11.9956C14.3802 11.6422 14.2415 11.3113 13.989 11.0635Z" fill="#F15822"/>
</svg>
