<svg width="30" height="30" viewBox="0 0 30 30" fill="none" xmlns="http://www.w3.org/2000/svg">
<g clip-path="url(#clip0)">
<path d="M15 30C23.2843 30 30 23.2843 30 15C30 6.71573 23.2843 0 15 0C6.71573 0 0 6.71573 0 15C0 23.2843 6.71573 30 15 30Z" fill="#245EDE"/>
<g opacity="0.4">
<path opacity="0.4" d="M18.234 0.354978C15.7539 -0.193392 13.1752 -0.103013 10.7396 0.617643C8.30403 1.3383 6.09133 2.66563 4.30895 4.47519C2.52656 6.28476 1.23288 8.5173 0.549168 10.9635C-0.134541 13.4097 -0.18588 15.9895 0.399964 18.461L18.234 0.354978Z" fill="url(#paint0_linear)"/>
<path opacity="0.4" d="M12.7639 29.83C15.0991 30.1809 17.4841 29.9754 19.7249 29.2305C21.9656 28.4855 23.9989 27.222 25.6591 25.5429C27.3194 23.8637 28.5597 21.8163 29.2793 19.5673C29.9988 17.3182 30.1772 14.931 29.7999 12.6L12.7639 29.83Z" fill="url(#paint1_linear)"/>
</g>
<path d="M16 16.4C16 16.5591 15.9368 16.7117 15.8243 16.8243C15.7117 16.9368 15.5591 17 15.4 17H14.2C14.0409 17 13.8883 16.9368 13.7757 16.8243C13.6632 16.7117 13.6 16.5591 13.6 16.4H9V19.8C9 19.9591 9.06321 20.1117 9.17574 20.2243C9.28826 20.3368 9.44087 20.4 9.6 20.4H20.4C20.5591 20.4 20.7117 20.3368 20.8243 20.2243C20.9368 20.1117 21 19.9591 21 19.8V16.4H16Z" fill="white"/>
<path d="M20.4 10.8H9.6C9.44087 10.8 9.28826 10.8632 9.17574 10.9757C9.06321 11.0882 9 11.2409 9 11.4V15.8H13.6C13.6 15.6409 13.6632 15.4882 13.7757 15.3757C13.8883 15.2632 14.0409 15.2 14.2 15.2H15.4C15.5591 15.2 15.7117 15.2632 15.8243 15.3757C15.9368 15.4882 16 15.6409 16 15.8H21V11.4C21 11.2409 20.9368 11.0882 20.8243 10.9757C20.7117 10.8632 20.5591 10.8 20.4 10.8Z" fill="white"/>
<path d="M15.1679 15.6H14.4339C14.2683 15.6 14.1339 15.7343 14.1339 15.9V16.3C14.1339 16.4657 14.2683 16.6 14.4339 16.6H15.1679C15.3336 16.6 15.4679 16.4657 15.4679 16.3V15.9C15.4679 15.7343 15.3336 15.6 15.1679 15.6Z" fill="white"/>
<path d="M12.8 11C12.8 11 13.4 9.60001 14.8 9.60001C16.2 9.60001 16.8 11 16.8 11" stroke="white" stroke-linecap="round" stroke-linejoin="round"/>
</g>
<defs>
<linearGradient id="paint0_linear" x1="19.8436" y1="3.1018" x2="4.15686" y2="10.1005" gradientUnits="userSpaceOnUse">
<stop stop-color="white"/>
<stop offset="0.13" stop-color="white" stop-opacity="0.8"/>
<stop offset="0.31" stop-color="white" stop-opacity="0.56"/>
<stop offset="0.48" stop-color="white" stop-opacity="0.36"/>
<stop offset="0.64" stop-color="white" stop-opacity="0.2"/>
<stop offset="0.78" stop-color="white" stop-opacity="0.09"/>
<stop offset="0.91" stop-color="white" stop-opacity="0.02"/>
<stop offset="1" stop-color="white" stop-opacity="0"/>
</linearGradient>
<linearGradient id="paint1_linear" x1="23.4059" y1="29.998" x2="19.3879" y2="13.368" gradientUnits="userSpaceOnUse">
<stop stop-color="white"/>
<stop offset="0.02" stop-color="white" stop-opacity="0.93"/>
<stop offset="0.09" stop-color="white" stop-opacity="0.74"/>
<stop offset="0.17" stop-color="white" stop-opacity="0.56"/>
<stop offset="0.25" stop-color="white" stop-opacity="0.41"/>
<stop offset="0.33" stop-color="white" stop-opacity="0.28"/>
<stop offset="0.43" stop-color="white" stop-opacity="0.18"/>
<stop offset="0.53" stop-color="white" stop-opacity="0.1"/>
<stop offset="0.64" stop-color="white" stop-opacity="0.04"/>
<stop offset="0.77" stop-color="white" stop-opacity="0.01"/>
<stop offset="1" stop-color="white" stop-opacity="0"/>
</linearGradient>
<clipPath id="clip0">
<rect width="30" height="30" fill="white"/>
</clipPath>
</defs>
</svg>
