<svg width="150" height="151" viewBox="0 0 150 151" fill="none" xmlns="http://www.w3.org/2000/svg">
<rect x="0.5" y="1.45654" width="149" height="149" rx="74.5" stroke="#245EDE"/>
<g clip-path="url(#clip0)">
<path d="M65.3497 98.6682C68.0485 100.308 70.8308 101.803 73.6849 103.145C74.7122 103.655 75.6011 104.091 76.2131 104.416C78.0638 105.414 81.6047 105.295 85.3133 102.783L87.6594 101.202C94.1002 96.8581 109.189 86.6845 110.909 85.2511C111.176 85.0406 111.384 84.7626 111.512 84.4449C111.64 84.1272 111.683 83.781 111.638 83.441C111.583 83.0397 111.432 82.6582 111.196 82.3308C110.961 82.0033 110.65 81.74 110.29 81.5644C109.015 80.9586 107.579 81.0472 104.381 83.3893C101.517 85.4802 91.6011 92.2552 90.6029 92.9054L90.5373 92.9497C90.5181 92.9537 90.4983 92.9537 90.4791 92.9497C88.5628 94.1688 85.5027 94.287 82.7049 94.287C78.4499 94.287 70.8506 93.6147 68.133 92.5212C67.9907 92.4744 67.8593 92.3985 67.7471 92.2981C67.6349 92.1977 67.5442 92.0751 67.4807 91.9377C67.4171 91.8003 67.3821 91.6512 67.3777 91.4996C67.3733 91.3479 67.3996 91.197 67.4551 91.056C67.5106 90.9151 67.594 90.7873 67.7002 90.6804C67.8064 90.5735 67.9331 90.4899 68.0725 90.4347C68.2119 90.3795 68.3609 90.3539 68.5104 90.3595C68.66 90.3651 68.8067 90.4018 68.9417 90.4673C71.1275 91.3538 78.2532 92.0705 82.6831 92.0705C84.4463 92.0705 87.9945 92.0705 89.4517 90.9697C89.5472 90.9005 89.6351 90.8213 89.714 90.7332C89.8865 90.5471 90.0169 90.3251 90.0962 90.0827C90.1754 89.8402 90.2017 89.5832 90.173 89.3295C90.0273 87.1573 89.3497 86.9874 84.6503 86.8027L83.3679 86.7436C77.4736 86.4776 73.1676 83.5075 69.408 80.3453C65.765 77.2866 58.8871 78.1289 56.0528 79.4144C53.2186 80.7 45 84.468 45 84.468L51.0255 99.4144C51.7978 98.9416 55.7614 96.5256 56.9199 95.7794C58.8798 94.5012 61.5902 96.2596 65.3497 98.6682Z" fill="#245EDE"/>
<path d="M92.3589 89.0562C95.7906 86.7068 101.182 83.0052 103.12 81.5941L103.186 81.5424C103.182 81.5031 103.182 81.4634 103.186 81.4242C103.155 81.0546 103.031 80.6995 102.824 80.3937C102.617 80.088 102.335 79.8422 102.006 79.6805C101.477 79.5256 100.923 79.483 100.377 79.5554C99.8321 79.6279 99.3073 79.8139 98.8361 80.1017L90.5957 85.6355C91.5866 86.2487 92.2132 87.2904 92.3589 89.0562Z" fill="#245EDE"/>
<path d="M93.9913 78.3949C93.3996 78.2251 92.78 78.1788 92.1701 78.2588C91.5602 78.3388 90.9727 78.5435 90.443 78.8603C89.4448 79.5548 84.7527 82.6801 82.1006 84.3942C82.545 84.4459 83.004 84.4976 83.4776 84.5198L84.7454 84.5715C85.9112 84.6158 86.9822 84.6601 87.9367 84.7857L95.4193 79.7248C95.2835 79.4159 95.0867 79.1386 94.8411 78.9099C94.5955 78.6811 94.3063 78.5059 93.9913 78.3949Z" fill="#245EDE"/>
<path d="M78.4061 45C75.5324 44.9986 72.7229 45.8608 70.3324 47.4779C67.9418 49.095 66.0776 51.3943 64.9753 54.0854C63.873 56.7764 63.582 59.7384 64.139 62.597C64.6961 65.4557 66.0763 68.0828 68.1052 70.1463C70.1341 72.2099 72.7207 73.6174 75.5381 74.1908C78.3555 74.7643 81.2773 74.4781 83.9344 73.3684C86.5915 72.2587 88.8645 70.3752 90.4664 67.956C92.0683 65.5368 92.9271 62.6904 92.9343 59.7765C92.9391 57.8384 92.5669 55.9184 91.839 54.1263C91.1111 52.3342 90.0419 50.7053 88.6924 49.3328C87.343 47.9603 85.7398 46.8711 83.9747 46.1276C82.2097 45.3842 80.3173 45.001 78.4061 45ZM84.2931 64.1651V64.276C84.2931 65.5098 83.1201 67.9184 79.6301 68.3838V69.9797C79.6301 70.2736 79.515 70.5555 79.31 70.7633C79.105 70.9712 78.8271 71.0879 78.5372 71.0879C78.2473 71.0879 77.9694 70.9712 77.7644 70.7633C77.5595 70.5555 77.4443 70.2736 77.4443 69.9797V68.3912C76.2798 68.2071 75.212 67.6258 74.4172 66.7433C73.6224 65.8608 73.1482 64.7298 73.0727 63.5371C73.0727 63.2432 73.1879 62.9613 73.3928 62.7535C73.5978 62.5457 73.8758 62.4289 74.1656 62.4289C74.4555 62.4289 74.7335 62.5457 74.9384 62.7535C75.1434 62.9613 75.2585 63.2432 75.2585 63.5371C75.3445 64.3082 75.7156 65.0176 76.297 65.5222C76.8784 66.0267 77.6269 66.289 78.3915 66.256C81.3059 66.256 82.0345 64.6601 82.0928 64.2686V64.1356C82.0928 63.3967 82.0928 62.2811 79.3532 61.6975C74.8724 60.737 73.2403 58.2989 73.2403 56.4518C73.2403 54.6047 74.5663 52.4695 77.4443 52.0188V50.4525C77.4443 50.1586 77.5595 49.8767 77.7644 49.6689C77.9694 49.4611 78.2473 49.3443 78.5372 49.3443C78.8271 49.3443 79.105 49.4611 79.31 49.6689C79.515 49.8767 79.6301 50.1586 79.6301 50.4525V52.0779C80.5582 52.2686 81.4115 52.7293 82.0856 53.4037C82.7597 54.0781 83.2255 54.937 83.4261 55.8755C83.4548 56.0177 83.4554 56.1642 83.428 56.3066C83.4007 56.4491 83.3458 56.5846 83.2666 56.7055C83.1873 56.8263 83.0853 56.9301 82.9664 57.0108C82.8475 57.0915 82.714 57.1476 82.5736 57.1758C82.2908 57.2329 81.9972 57.175 81.756 57.0147C81.5148 56.8544 81.3453 56.6045 81.284 56.3188C81.1455 55.6887 80.7915 55.1286 80.2847 54.7378C79.778 54.347 79.1512 54.1507 78.5153 54.1836C75.55 54.1836 75.4042 56.075 75.4042 56.4518C75.4042 57.3162 76.57 58.8456 79.7758 59.5253C84.3441 60.5153 84.3441 63.2564 84.2931 64.1651Z" fill="#245EDE"/>
</g>
<defs>
<clipPath id="clip0">
<rect width="66.6667" height="60" fill="white" transform="translate(45 45)"/>
</clipPath>
</defs>
</svg>
