<svg width="30" height="30" viewBox="0 0 30 30" fill="none" xmlns="http://www.w3.org/2000/svg">
<g clip-path="url(#clip0)">
<path d="M15 30C23.2843 30 30 23.2843 30 15C30 6.71573 23.2843 0 15 0C6.71573 0 0 6.71573 0 15C0 23.2843 6.71573 30 15 30Z" fill="url(#paint0_linear)"/>
<g opacity="0.4">
<path opacity="0.4" d="M18.234 0.354978C15.7539 -0.193392 13.1752 -0.103013 10.7396 0.617643C8.30403 1.3383 6.09133 2.66563 4.30895 4.47519C2.52656 6.28476 1.23288 8.5173 0.549168 10.9635C-0.134541 13.4097 -0.18588 15.9895 0.399964 18.461L18.234 0.354978Z" fill="url(#paint1_linear)"/>
<path opacity="0.4" d="M12.7639 29.83C15.0991 30.1809 17.4841 29.9754 19.7249 29.2305C21.9656 28.4855 23.9989 27.222 25.6591 25.5429C27.3194 23.8637 28.5597 21.8163 29.2793 19.5673C29.9988 17.3182 30.1772 14.931 29.7999 12.6L12.7639 29.83Z" fill="url(#paint2_linear)"/>
</g>
<path d="M17.8 8H12.2C11.8686 8 11.6 8.26863 11.6 8.6V12.8C11.6 13.1314 11.8686 13.4 12.2 13.4H17.8C18.1313 13.4 18.4 13.1314 18.4 12.8V8.6C18.4 8.26863 18.1313 8 17.8 8Z" fill="white"/>
<path d="M11.8 20.7V18.3C11.8 18.2204 11.7684 18.1441 11.7121 18.0879C11.6559 18.0316 11.5796 18 11.5 18H8.09999C8.02042 18 7.94412 18.0316 7.88786 18.0879C7.83159 18.1441 7.79999 18.2204 7.79999 18.3V20.7C7.79999 20.7796 7.83159 20.8559 7.88786 20.9121C7.94412 20.9684 8.02042 21 8.09999 21H9.39999V21.4H8.79999V22H10.8V21.4H10.2V21H11.5C11.5796 21 11.6559 20.9684 11.7121 20.9121C11.7684 20.8559 11.8 20.7796 11.8 20.7Z" fill="white"/>
<path d="M17 20.7V18.3C17 18.2204 16.9684 18.1441 16.9121 18.0879C16.8559 18.0316 16.7796 18 16.7 18H13.3C13.2204 18 13.1441 18.0316 13.0879 18.0879C13.0316 18.1441 13 18.2204 13 18.3V20.7C13 20.7796 13.0316 20.8559 13.0879 20.9121C13.1441 20.9684 13.2204 21 13.3 21H14.6V21.4H14V22H16V21.4H15.4V21H16.7C16.7796 21 16.8559 20.9684 16.9121 20.9121C16.9684 20.8559 17 20.7796 17 20.7Z" fill="white"/>
<path d="M22.2 20.7V18.3C22.2 18.2204 22.1684 18.1441 22.1121 18.0879C22.0559 18.0316 21.9795 18 21.9 18H18.5C18.4204 18 18.3441 18.0316 18.2878 18.0879C18.2316 18.1441 18.2 18.2204 18.2 18.3V20.7C18.2 20.7796 18.2316 20.8559 18.2878 20.9121C18.3441 20.9684 18.4204 21 18.5 21H19.8V21.4H19.2V22H21.2V21.4H20.6V21H21.9C21.9795 21 22.0559 20.9684 22.1121 20.9121C22.1684 20.8559 22.2 20.7796 22.2 20.7Z" fill="white"/>
<path d="M15 13V16.8" stroke="white" stroke-width="0.5" stroke-linecap="round" stroke-linejoin="round"/>
<path d="M17.5 13.1L19.7 16.9" stroke="white" stroke-width="0.5" stroke-linecap="round" stroke-linejoin="round"/>
<path d="M12.7 13.1L10.5 16.9" stroke="white" stroke-width="0.5" stroke-linecap="round" stroke-linejoin="round"/>
</g>
<defs>
<linearGradient id="paint0_linear" x1="15" y1="30" x2="15" y2="0" gradientUnits="userSpaceOnUse">
<stop stop-color="#F85977"/>
<stop offset="1" stop-color="#F7931E"/>
</linearGradient>
<linearGradient id="paint1_linear" x1="19.8415" y1="3.10181" x2="4.15674" y2="10.0985" gradientUnits="userSpaceOnUse">
<stop stop-color="white"/>
<stop offset="0.13" stop-color="white" stop-opacity="0.8"/>
<stop offset="0.31" stop-color="white" stop-opacity="0.56"/>
<stop offset="0.48" stop-color="white" stop-opacity="0.36"/>
<stop offset="0.64" stop-color="white" stop-opacity="0.2"/>
<stop offset="0.78" stop-color="white" stop-opacity="0.09"/>
<stop offset="0.91" stop-color="white" stop-opacity="0.02"/>
<stop offset="1" stop-color="white" stop-opacity="0"/>
</linearGradient>
<linearGradient id="paint2_linear" x1="23.4059" y1="29.998" x2="19.3879" y2="13.368" gradientUnits="userSpaceOnUse">
<stop stop-color="white"/>
<stop offset="0.02" stop-color="white" stop-opacity="0.93"/>
<stop offset="0.09" stop-color="white" stop-opacity="0.74"/>
<stop offset="0.17" stop-color="white" stop-opacity="0.56"/>
<stop offset="0.25" stop-color="white" stop-opacity="0.41"/>
<stop offset="0.33" stop-color="white" stop-opacity="0.28"/>
<stop offset="0.43" stop-color="white" stop-opacity="0.18"/>
<stop offset="0.53" stop-color="white" stop-opacity="0.1"/>
<stop offset="0.64" stop-color="white" stop-opacity="0.04"/>
<stop offset="0.77" stop-color="white" stop-opacity="0.01"/>
<stop offset="1" stop-color="white" stop-opacity="0"/>
</linearGradient>
<clipPath id="clip0">
<rect width="30" height="30" fill="white"/>
</clipPath>
</defs>
</svg>
