<svg width="30" height="30" viewBox="0 0 30 30" fill="none" xmlns="http://www.w3.org/2000/svg">
<path d="M15 30C23.2843 30 30 23.2843 30 15C30 6.71573 23.2843 0 15 0C6.71573 0 0 6.71573 0 15C0 23.2843 6.71573 30 15 30Z" fill="url(#paint0_linear)"/>
<path d="M16.894 8.55H10.95C10.7909 8.55 10.6383 8.61322 10.5257 8.72574C10.4132 8.83826 10.35 8.99087 10.35 9.15V20.876C10.35 21.0351 10.4132 21.1877 10.5257 21.3003C10.6383 21.4128 10.7909 21.476 10.95 21.476H19.826C19.9851 21.476 20.1377 21.4128 20.2503 21.3003C20.3628 21.1877 20.426 21.0351 20.426 20.876V12.076L16.894 8.55ZM17.9 18.4H12.9C12.8204 18.4 12.7441 18.3684 12.6879 18.3121C12.6316 18.2559 12.6 18.1796 12.6 18.1C12.6 18.0204 12.6316 17.9441 12.6879 17.8879C12.7441 17.8316 12.8204 17.8 12.9 17.8H17.9C17.9796 17.8 18.0559 17.8316 18.1121 17.8879C18.1684 17.9441 18.2 18.0204 18.2 18.1C18.2 18.1796 18.1684 18.2559 18.1121 18.3121C18.0559 18.3684 17.9796 18.4 17.9 18.4ZM17.9 16.6H12.9C12.8204 16.6 12.7441 16.5684 12.6879 16.5121C12.6316 16.4559 12.6 16.3796 12.6 16.3C12.6 16.2204 12.6316 16.1441 12.6879 16.0879C12.7441 16.0316 12.8204 16 12.9 16H17.9C17.9796 16 18.0559 16.0316 18.1121 16.0879C18.1684 16.1441 18.2 16.2204 18.2 16.3C18.2 16.3796 18.1684 16.4559 18.1121 16.5121C18.0559 16.5684 17.9796 16.6 17.9 16.6ZM17.9 14.8H12.9C12.8204 14.8 12.7441 14.7684 12.6879 14.7121C12.6316 14.6559 12.6 14.5796 12.6 14.5C12.6 14.4204 12.6316 14.3441 12.6879 14.2879C12.7441 14.2316 12.8204 14.2 12.9 14.2H17.9C17.9796 14.2 18.0559 14.2316 18.1121 14.2879C18.1684 14.3441 18.2 14.4204 18.2 14.5C18.2 14.5796 18.1684 14.6559 18.1121 14.7121C18.0559 14.7684 17.9796 14.8 17.9 14.8ZM17.5 12.082C17.3409 12.082 17.1883 12.0188 17.0757 11.9063C16.9632 11.7937 16.9 11.6411 16.9 11.482V9.4L19.576 12.082H17.5Z" fill="white"/>
<defs>
<linearGradient id="paint0_linear" x1="15" y1="30" x2="15" y2="0" gradientUnits="userSpaceOnUse">
<stop stop-color="#59B9FF"/>
<stop offset="0.25" stop-color="#4CA9FF"/>
<stop offset="0.71" stop-color="#3991FE"/>
<stop offset="0.99" stop-color="#3288FE"/>
</linearGradient>
</defs>
</svg>
