<svg width="30" height="30" viewBox="0 0 30 30" fill="none" xmlns="http://www.w3.org/2000/svg">
<path d="M15 30C23.2843 30 30 23.2843 30 15C30 6.71573 23.2843 0 15 0C6.71573 0 0 6.71573 0 15C0 23.2843 6.71573 30 15 30Z" fill="url(#paint0_linear)"/>
<path d="M21.2 9.6H19.6V9C19.6 8.84087 19.5368 8.68826 19.4243 8.57574C19.3117 8.46322 19.1591 8.4 19 8.4H18.6C18.4409 8.4 18.2883 8.46322 18.1757 8.57574C18.0632 8.68826 18 8.84087 18 9V9.6H12.8V9C12.8 8.84087 12.7368 8.68826 12.6243 8.57574C12.5117 8.46322 12.3591 8.4 12.2 8.4H11.8C11.6409 8.4 11.4883 8.46322 11.3757 8.57574C11.2632 8.68826 11.2 8.84087 11.2 9V9.6H9.6C9.44087 9.6 9.28826 9.66322 9.17574 9.77574C9.06321 9.88826 9 10.0409 9 10.2V12H21.8V10.2C21.8 10.0409 21.7368 9.88826 21.6243 9.77574C21.5117 9.66322 21.3591 9.6 21.2 9.6ZM12.288 10.2C12.288 10.2796 12.2564 10.3559 12.2001 10.4121C12.1439 10.4684 12.0676 10.5 11.988 10.5C11.9084 10.5 11.8321 10.4684 11.7759 10.4121C11.7196 10.3559 11.688 10.2796 11.688 10.2V9.2C11.688 9.12044 11.7196 9.04413 11.7759 8.98787C11.8321 8.93161 11.9084 8.9 11.988 8.9C12.0676 8.9 12.1439 8.93161 12.2001 8.98787C12.2564 9.04413 12.288 9.12044 12.288 9.2V10.2ZM19.112 10.2C19.112 10.2796 19.0804 10.3559 19.0241 10.4121C18.9679 10.4684 18.8916 10.5 18.812 10.5C18.7324 10.5 18.6561 10.4684 18.5999 10.4121C18.5436 10.3559 18.512 10.2796 18.512 10.2V9.2C18.512 9.12044 18.5436 9.04413 18.5999 8.98787C18.6561 8.93161 18.7324 8.9 18.812 8.9C18.8916 8.9 18.9679 8.93161 19.0241 8.98787C19.0804 9.04413 19.112 9.12044 19.112 9.2V10.2Z" fill="white"/>
<path d="M9 12.6V21.2C9 21.3591 9.06321 21.5117 9.17574 21.6243C9.28826 21.7368 9.44087 21.8 9.6 21.8H21.2C21.3591 21.8 21.5117 21.7368 21.6243 21.6243C21.7368 21.5117 21.8 21.3591 21.8 21.2V12.6H9ZM13.138 19.576H11.738V18.176H13.138V19.576ZM13.138 17.638H11.738V16.238H13.138V17.638ZM13.138 15.7H11.738V14.3H13.138V15.7ZM15.112 19.576H13.712V18.176H15.112V19.576ZM15.112 17.638H13.712V16.238H15.112V17.638ZM15.112 15.7H13.712V14.3H15.112V15.7ZM17.088 19.576H15.688V18.176H17.088V19.576ZM17.088 17.638H15.688V16.238H17.088V17.638ZM17.088 15.7H15.688V14.3H17.088V15.7ZM19.062 19.576H17.662V18.176H19.062V19.576ZM19.062 17.638H17.662V16.238H19.062V17.638ZM19.062 15.7H17.662V14.3H19.062V15.7Z" fill="white"/>
<defs>
<linearGradient id="paint0_linear" x1="15" y1="30" x2="15" y2="0" gradientUnits="userSpaceOnUse">
<stop stop-color="#59B9FF"/>
<stop offset="0.25" stop-color="#4CA9FF"/>
<stop offset="0.71" stop-color="#3991FE"/>
<stop offset="0.99" stop-color="#3288FE"/>
</linearGradient>
</defs>
</svg>
