<?xml version="1.0" encoding="utf-8"?>
<!-- Generator: Adobe Illustrator 25.2.3, SVG Export Plug-In . SVG Version: 6.00 Build 0)  -->
<svg version="1.1" id="Layer_1" xmlns="http://www.w3.org/2000/svg" xmlns:xlink="http://www.w3.org/1999/xlink" x="0px" y="0px"
	 viewBox="0 0 198.96 199.3" style="enable-background:new 0 0 198.96 199.3;" xml:space="preserve">
<style type="text/css">
	.st0{fill:url(#SVGID_1_);}
	.st1{fill:#FEFEFE;}
	.st2{fill:url(#SVGID_2_);}
</style>
<linearGradient id="SVGID_1_" gradientUnits="userSpaceOnUse" x1="99.3778" y1="41.5992" x2="99.3778" y2="178.6758">
	<stop  offset="0" style="stop-color:#F78F26"/>
	<stop  offset="1" style="stop-color:#F15D74"/>
</linearGradient>
<circle class="st0" cx="99.38" cy="100.57" r="91.93"/>
<path class="st1" d="M67.65,97.23c2.68-7.05,5.38-14.09,7.88-21.2c0.7-2,1.51-3.97,2.36-5.92c0.62-1.43,1.83-2.21,3.31-2.68
	c9.62-3.07,19.22-6.18,28.85-9.23c1.98-0.63,3.64-1.64,5.07-3.12c2.34-2.41,4.73-4.76,7.12-7.13c0.5-0.5,1.04-0.98,1.62-1.39
	c1-0.72,2.05-0.71,3.04,0c0.58,0.41,1.11,0.9,1.61,1.4c6.86,6.85,13.72,13.71,20.58,20.56c0.24,0.24,0.48,0.47,0.7,0.72
	c1.45,1.63,1.51,2.95,0.07,4.54c-1.61,1.77-3.17,3.61-5.04,5.09c-3.84,3.06-6.04,7.1-7.33,11.74c-0.17,0.6-0.32,1.21-0.47,1.82
	c-1.28,3.99-2.57,7.98-3.85,11.97c-1.2,3.74-2.44,7.47-3.59,11.23c-0.59,1.92-1.77,3.13-3.65,3.83
	c-14.58,5.42-29.14,10.87-43.71,16.31c-3.62,1.35-7.24,2.73-10.85,4.1c-0.1,0.04-0.16,0.16-0.43,0.45c0.68,0,1.15,0,1.62,0
	c22.51,0,45.02,0,67.53,0c0.75,0,1.5-0.01,2.24,0.25c1.34,0.47,2.03,1.44,2,2.85c-0.03,1.36-0.84,2.41-2.19,2.71
	c-0.65,0.15-1.33,0.2-2,0.2c-28.14,0.01-56.27,0.01-84.41,0c-0.92,0-1.85-0.07-2.76-0.23c-1.6-0.28-2.28-1.22-2.18-2.85
	c0.07-1.11,0.5-2.12,0.88-3.14c5.22-13.94,10.44-27.88,15.66-41.82C67.45,97.95,67.54,97.59,67.65,97.23z M133.27,83.38
	c-0.04-0.6-0.44-0.97-0.83-1.36c-5.81-5.81-11.63-11.62-17.42-17.45c-0.87-0.88-1.82-1.16-2.96-0.79
	c-9.09,2.91-18.18,5.84-27.26,8.76c-1.05,0.34-1.87,0.98-2.26,2.03c-1.1,2.94-2.17,5.89-3.25,8.83c-0.08,0.14-0.19,0.28-0.25,0.43
	c-5.63,15.04-11.26,30.09-16.87,45.13c-0.15,0.41-0.45,0.82-0.22,1.33c0.56-0.09,0.82-0.57,1.16-0.91
	c7.7-7.68,15.37-15.4,23.11-23.04c1.04-1.03,1.27-1.75,0.67-3.16c-2.39-5.55-0.37-12.03,4.6-15.34c5.02-3.35,11.67-2.74,15.98,1.47
	c4.29,4.18,5.05,10.91,1.79,15.89c-3.45,5.27-9.69,7.25-15.42,4.91c-1.87-0.76-2.08-0.73-3.52,0.72
	c-5.55,5.56-11.05,11.17-16.65,16.67c-2.45,2.41-4.72,5.01-7.42,7.17c-0.15,0.12-0.4,0.22-0.27,0.48c0.11,0.23,0.36,0.19,0.55,0.14
	c0.33-0.08,0.64-0.19,0.96-0.31c18.14-6.81,36.28-13.62,54.43-20.41c1.28-0.48,2.08-1.32,2.5-2.62c1.15-3.62,2.35-7.22,3.52-10.84
	c1.5-4.63,2.84-9.31,4.46-13.9C132.82,86,133.62,84.8,133.27,83.38z M125.26,53.86c-0.18,0.14-0.36,0.26-0.5,0.4
	c-1.72,1.72-3.43,3.46-5.17,5.15c-0.52,0.5-0.21,0.77,0.14,1.11c5.53,5.5,11.06,11.01,16.58,16.53c0.43,0.43,0.69,0.41,1.1-0.02
	c1.64-1.68,3.3-3.35,4.99-4.98c0.52-0.5,0.35-0.79-0.07-1.21c-5.5-5.48-10.98-10.97-16.47-16.46
	C125.68,54.22,125.48,54.06,125.26,53.86z M98.5,105.11c3.74,0.03,6.88-3.05,6.87-6.74c-0.01-3.6-3.16-6.75-6.77-6.77
	c-3.62-0.02-6.74,3.08-6.75,6.73C91.82,102.05,94.79,105.08,98.5,105.11z M61.72,130.61l0.06,0.05l0.01-0.07L61.72,130.61z"/>
</svg>
