<svg width="12" height="13" viewBox="0 0 12 13" fill="none" xmlns="http://www.w3.org/2000/svg"> <path d="M6 0.865356C2.69147 0.865356 0 3.55682 0 6.86536C0 10.1739 2.69147 12.8654 6 12.8654C9.30853 12.8654 12 10.1739 12 6.86536C12 3.55682 9.30853 0.865356 6 0.865356ZM8.85352 9.96881C8.75601 10.0663 8.62802 10.1154 8.50003 10.1154C8.37204 10.1154 8.24396 10.0663 8.14655 9.96881L5.64651 7.46887C5.55249 7.3754 5.50003 7.24832 5.50003 7.11539V3.86536C5.50003 3.58887 5.72397 3.36539 6 3.36539C6.27603 3.36539 6.49997 3.58887 6.49997 3.86536V6.90839L8.85352 9.26184C9.04898 9.4574 9.04898 9.77335 8.85352 9.96881Z" fill="#8a8989"></path> </svg>