<svg width="30" height="30" viewBox="0 0 30 30" fill="none" xmlns="http://www.w3.org/2000/svg">
<path d="M15 30C23.2843 30 30 23.2843 30 15C30 6.71573 23.2843 0 15 0C6.71573 0 0 6.71573 0 15C0 23.2843 6.71573 30 15 30Z" fill="url(#paint0_linear)"/>
<path d="M20.7 11.5H19.8V18.4C19.8 18.8243 19.6314 19.2313 19.3314 19.5314C19.0313 19.8314 18.6244 20 18.2 20H11.3V20.9C11.3 21.1652 11.4054 21.4196 11.5929 21.6071C11.7804 21.7946 12.0348 21.9 12.3 21.9H20.7C20.9652 21.9 21.2196 21.7946 21.4071 21.6071C21.5946 21.4196 21.7 21.1652 21.7 20.9V12.5C21.7 12.2348 21.5946 11.9804 21.4071 11.7929C21.2196 11.6054 20.9652 11.5 20.7 11.5Z" fill="white"/>
<path d="M13.844 16.2C13.7913 16.2591 13.7274 16.3073 13.656 16.3416C13.5846 16.3759 13.5071 16.3958 13.428 16.4H13.4C13.2517 16.3986 13.1092 16.3423 13 16.242L10.6 14.042C10.5313 13.9928 10.4738 13.9295 10.4312 13.8565C10.3886 13.7835 10.3619 13.7023 10.3529 13.6182C10.3439 13.5342 10.3528 13.4491 10.3789 13.3687C10.4051 13.2884 10.4479 13.2144 10.5046 13.1517C10.5614 13.089 10.6307 13.039 10.7081 13.005C10.7855 12.971 10.8692 12.9537 10.9537 12.9543C11.0383 12.9549 11.1217 12.9734 11.1986 13.0085C11.2755 13.0436 11.3442 13.0945 11.4 13.158L13.356 14.958L18.662 9.12C18.5207 9.04141 18.3617 9.00012 18.2 9H9.8C9.53479 9 9.28043 9.10536 9.0929 9.29289C8.90536 9.48043 8.8 9.73478 8.8 10V18.4C8.8 18.6652 8.90536 18.9196 9.0929 19.1071C9.28043 19.2946 9.53479 19.4 9.8 19.4H18.2C18.3313 19.4 18.4614 19.3741 18.5827 19.3239C18.704 19.2736 18.8143 19.2 18.9071 19.1071C19 19.0142 19.0736 18.904 19.1239 18.7827C19.1741 18.6614 19.2 18.5313 19.2 18.4V10.312L13.844 16.2Z" fill="white"/>
<defs>
<linearGradient id="paint0_linear" x1="15" y1="30" x2="15" y2="0" gradientUnits="userSpaceOnUse">
<stop stop-color="#F85977"/>
<stop offset="1" stop-color="#F7931E"/>
</linearGradient>
</defs>
</svg>
