<svg width="30" height="30" viewBox="0 0 30 30" fill="none" xmlns="http://www.w3.org/2000/svg">
<path d="M15 30C23.2843 30 30 23.2843 30 15C30 6.71573 23.2843 0 15 0C6.71573 0 0 6.71573 0 15C0 23.2843 6.71573 30 15 30Z" fill="url(#paint0_linear)"/>
<path d="M11.2 10.8C11.2 10.0268 10.5732 9.39999 9.79999 9.39999C9.0268 9.39999 8.39999 10.0268 8.39999 10.8V18.8C8.39999 19.5732 9.0268 20.2 9.79999 20.2C10.5732 20.2 11.2 19.5732 11.2 18.8V10.8Z" stroke="white" stroke-width="0.5" stroke-linecap="round" stroke-linejoin="round"/>
<path d="M9.79999 20.2C10.5732 20.2 11.2 19.5732 11.2 18.8C11.2 18.0268 10.5732 17.4 9.79999 17.4C9.0268 17.4 8.39999 18.0268 8.39999 18.8C8.39999 19.5732 9.0268 20.2 9.79999 20.2Z" fill="white" stroke="white" stroke-width="0.5" stroke-miterlimit="10"/>
<path d="M11.2 10.302V18.234L9.79999 20.502H22.2V10.302H11.2ZM19.916 18H13.516C13.4364 18 13.3601 17.9684 13.3039 17.9121C13.2476 17.8559 13.216 17.7796 13.216 17.7C13.216 17.6204 13.2476 17.5441 13.3039 17.4879C13.3601 17.4316 13.4364 17.4 13.516 17.4H19.916C19.9956 17.4 20.0719 17.4316 20.1281 17.4879C20.1844 17.5441 20.216 17.6204 20.216 17.7C20.216 17.7796 20.1844 17.8559 20.1281 17.9121C20.0719 17.9684 19.9956 18 19.916 18ZM20.216 14.332C20.2162 14.3717 20.2046 14.4106 20.1827 14.4437C20.1607 14.4768 20.1294 14.5026 20.0927 14.5179C20.056 14.5331 20.0156 14.5371 19.9766 14.5293C19.9377 14.5214 19.902 14.5022 19.874 14.474L19.212 13.812L17.412 15.612C17.3843 15.6401 17.3513 15.6623 17.3149 15.6775C17.2785 15.6927 17.2394 15.7006 17.2 15.7006C17.1605 15.7006 17.1215 15.6927 17.0851 15.6775C17.0487 15.6623 17.0157 15.6401 16.988 15.612L15.588 14.212L13.788 15.822C13.7586 15.8483 13.7243 15.8685 13.687 15.8815C13.6498 15.8945 13.6104 15.9 13.571 15.8978C13.5316 15.8956 13.4931 15.8856 13.4576 15.8685C13.4221 15.8514 13.3903 15.8274 13.364 15.798C13.3377 15.7686 13.3175 15.7343 13.3045 15.6971C13.2915 15.6598 13.2859 15.6204 13.2882 15.581C13.2904 15.5417 13.3004 15.5031 13.3175 15.4676C13.3346 15.4321 13.3586 15.4003 13.388 15.374L15.388 13.574C15.4434 13.5209 15.5172 13.4913 15.594 13.4913C15.6707 13.4913 15.7445 13.5209 15.8 13.574L17.2 14.976L18.788 13.388L18.126 12.726C18.0978 12.698 18.0785 12.6623 18.0707 12.6233C18.0629 12.5844 18.0669 12.544 18.0821 12.5073C18.0973 12.4706 18.1232 12.4393 18.1563 12.4173C18.1894 12.3954 18.2283 12.3838 18.268 12.384H20.016C20.069 12.384 20.1199 12.4051 20.1574 12.4426C20.1949 12.4801 20.216 12.531 20.216 12.584V14.332Z" fill="white"/>
<defs>
<linearGradient id="paint0_linear" x1="15" y1="30" x2="15" y2="0" gradientUnits="userSpaceOnUse">
<stop stop-color="#F85977"/>
<stop offset="1" stop-color="#F7931E"/>
</linearGradient>
</defs>
</svg>
