<svg width="14" height="8" viewBox="0 0 14 8" fill="none" xmlns="http://www.w3.org/2000/svg"> <path d="M13.8955 3.59178C13.7705 3.45238 10.7648 0.17395 7.00001 0.17395C3.23527 0.17395 0.229537 3.45238 0.104549 3.59178C-0.0348496 3.74759 -0.0348496 3.98313 0.104549 4.13893C0.229537 4.27833 3.23533 7.55676 7.00001 7.55676C10.7647 7.55676 13.7705 4.27833 13.8955 4.13893C14.0349 3.98313 14.0349 3.74759 13.8955 3.59178ZM7.00001 6.73645C5.41706 6.73645 4.12892 5.44831 4.12892 3.86536C4.12892 2.2824 5.41706 0.994263 7.00001 0.994263C8.58297 0.994263 9.87111 2.2824 9.87111 3.86536C9.87111 5.44831 8.58297 6.73645 7.00001 6.73645Z" fill="#8a8989"></path> </svg>