<svg width="30" height="30" viewBox="0 0 30 30" fill="none" xmlns="http://www.w3.org/2000/svg">
<path d="M15 30C23.2843 30 30 23.2843 30 15C30 6.71573 23.2843 0 15 0C6.71573 0 0 6.71573 0 15C0 23.2843 6.71573 30 15 30Z" fill="url(#paint0_linear)"/>
<path d="M19.346 18.2H13.108L11.708 12.4H21.092C21.1889 12.4002 21.2844 12.4239 21.3702 12.4691C21.456 12.5143 21.5296 12.5795 21.5846 12.6594C21.6397 12.7392 21.6745 12.8311 21.6863 12.9274C21.698 13.0236 21.6862 13.1213 21.652 13.212L19.908 17.812C19.8649 17.9261 19.788 18.0244 19.6876 18.0938C19.5871 18.1631 19.468 18.2001 19.346 18.2Z" fill="white"/>
<path d="M13.108 11.8L15.108 10L17.108 11.8H13.108Z" fill="white"/>
<path d="M17.508 10L16.808 10.63L18.108 11.8H19.508L17.508 10Z" fill="white"/>
<path d="M8.10797 9H9.70797C10.508 9 10.908 9.4 11.108 10.2C11.308 11 12.908 17.8 13.108 18.6C13.308 19.4 13.308 20 15.108 20H20.026" stroke="white" stroke-width="4" stroke-linecap="round" stroke-linejoin="round"/>
<path d="M8.00797 10C8.39457 10 8.70797 9.6866 8.70797 9.3C8.70797 8.9134 8.39457 8.6 8.00797 8.6C7.62137 8.6 7.30797 8.9134 7.30797 9.3C7.30797 9.6866 7.62137 10 8.00797 10Z" fill="white"/>
<path d="M15.008 22.4C15.505 22.4 15.908 21.9971 15.908 21.5C15.908 21.0029 15.505 20.6 15.008 20.6C14.5109 20.6 14.108 21.0029 14.108 21.5C14.108 21.9971 14.5109 22.4 15.008 22.4Z" stroke="white" stroke-width="2" stroke-linecap="round" stroke-linejoin="round"/>
<path d="M18.802 22.4C19.2991 22.4 19.702 21.9971 19.702 21.5C19.702 21.0029 19.2991 20.6 18.802 20.6C18.3049 20.6 17.902 21.0029 17.902 21.5C17.902 21.9971 18.3049 22.4 18.802 22.4Z" stroke="white" stroke-width="2" stroke-linecap="round" stroke-linejoin="round"/>
<defs>
<linearGradient id="paint0_linear" x1="15" y1="30" x2="15" y2="0" gradientUnits="userSpaceOnUse">
<stop stop-color="#59B9FF"/>
<stop offset="0.25" stop-color="#4CA9FF"/>
<stop offset="0.71" stop-color="#3991FE"/>
<stop offset="0.99" stop-color="#3288FE"/>
</linearGradient>
</defs>
</svg>
