<svg width="30" height="30" viewBox="0 0 30 30" fill="none" xmlns="http://www.w3.org/2000/svg">
<g clip-path="url(#clip0)">
<path d="M15 30C23.2843 30 30 23.2843 30 15C30 6.71573 23.2843 0 15 0C6.71573 0 0 6.71573 0 15C0 23.2843 6.71573 30 15 30Z" fill="url(#paint0_linear)"/>
<g opacity="0.4">
<path opacity="0.4" d="M18.234 0.354978C15.7539 -0.193392 13.1752 -0.103013 10.7396 0.617643C8.30405 1.3383 6.09134 2.66563 4.30896 4.47519C2.52658 6.28476 1.23289 8.5173 0.549183 10.9635C-0.134526 13.4097 -0.185865 15.9895 0.399979 18.461L18.234 0.354978Z" fill="url(#paint1_linear)"/>
<path opacity="0.4" d="M12.7639 29.83C15.0991 30.1809 17.4841 29.9754 19.7249 29.2305C21.9656 28.4855 23.9989 27.222 25.6591 25.5429C27.3194 23.8637 28.5597 21.8163 29.2793 19.5673C29.9988 17.3182 30.1772 14.931 29.7999 12.6L12.7639 29.83Z" fill="url(#paint2_linear)"/>
</g>
<path d="M21.8 10.2H8.6C8.38783 10.2 8.18435 10.2843 8.03432 10.4343C7.88429 10.5844 7.8 10.7878 7.8 11V19.8C7.8 20.0122 7.88429 20.2157 8.03432 20.3657C8.18435 20.5157 8.38783 20.6 8.6 20.6H21.8C22.0122 20.6 22.2157 20.5157 22.3657 20.3657C22.5157 20.2157 22.6 20.0122 22.6 19.8V11C22.6 10.7878 22.5157 10.5844 22.3657 10.4343C22.2157 10.2843 22.0122 10.2 21.8 10.2ZM14.978 18.2H9.8C9.8 18.2 9.704 17.25 10.464 16.966C11.224 16.682 11.604 16.586 11.604 16.302C11.6277 16.1067 11.5944 15.9087 11.508 15.732C11.4328 15.5777 11.3661 15.4195 11.308 15.258C11.2469 15.2537 11.1882 15.2328 11.1382 15.1976C11.0881 15.1623 11.0486 15.1141 11.024 15.058C10.936 14.882 10.852 14.546 11.068 14.576C11.0839 14.5729 11.1002 14.5729 11.116 14.576C11.022 14.192 10.932 13.348 11.316 12.976C11.7 12.604 11.978 12.6 12.358 12.6H12.416C12.796 12.6 13.08 12.6 13.46 12.98C13.84 13.36 13.746 14.2 13.66 14.58C13.6759 14.5769 13.6922 14.5769 13.708 14.58C13.926 14.55 13.84 14.886 13.752 15.062C13.7274 15.1181 13.6879 15.1663 13.6379 15.2016C13.5878 15.2368 13.5291 15.2577 13.468 15.262C13.41 15.4235 13.3432 15.5817 13.268 15.736C13.1833 15.9133 13.1507 16.1109 13.174 16.306C13.174 16.59 13.552 16.686 14.312 16.97C15.072 17.254 14.978 18.2 14.978 18.2ZM20.3 17.2H16.5C16.4204 17.2 16.3441 17.1684 16.2879 17.1121C16.2316 17.0559 16.2 16.9796 16.2 16.9C16.2 16.8204 16.2316 16.7441 16.2879 16.6879C16.3441 16.6316 16.4204 16.6 16.5 16.6H20.3C20.3796 16.6 20.4559 16.6316 20.5121 16.6879C20.5684 16.7441 20.6 16.8204 20.6 16.9C20.6 16.9796 20.5684 17.0559 20.5121 17.1121C20.4559 17.1684 20.3796 17.2 20.3 17.2ZM20.3 15.6H16.5C16.4204 15.6 16.3441 15.5684 16.2879 15.5121C16.2316 15.4559 16.2 15.3796 16.2 15.3C16.2 15.2204 16.2316 15.1441 16.2879 15.0879C16.3441 15.0316 16.4204 15 16.5 15H20.3C20.3796 15 20.4559 15.0316 20.5121 15.0879C20.5684 15.1441 20.6 15.2204 20.6 15.3C20.6 15.3796 20.5684 15.4559 20.5121 15.5121C20.4559 15.5684 20.3796 15.6 20.3 15.6ZM20.3 14H16.5C16.4204 14 16.3441 13.9684 16.2879 13.9121C16.2316 13.8559 16.2 13.7796 16.2 13.7C16.2 13.6204 16.2316 13.5441 16.2879 13.4879C16.3441 13.4316 16.4204 13.4 16.5 13.4H20.3C20.3796 13.4 20.4559 13.4316 20.5121 13.4879C20.5684 13.5441 20.6 13.6204 20.6 13.7C20.6 13.7796 20.5684 13.8559 20.5121 13.9121C20.4559 13.9684 20.3796 14 20.3 14Z" fill="white"/>
</g>
<defs>
<linearGradient id="paint0_linear" x1="15" y1="30" x2="15" y2="0" gradientUnits="userSpaceOnUse">
<stop stop-color="#59B9FF"/>
<stop offset="0.25" stop-color="#4CA9FF"/>
<stop offset="0.71" stop-color="#3991FE"/>
<stop offset="0.99" stop-color="#3288FE"/>
</linearGradient>
<linearGradient id="paint1_linear" x1="19.8416" y1="3.10202" x2="4.15687" y2="10.0987" gradientUnits="userSpaceOnUse">
<stop stop-color="white"/>
<stop offset="0.13" stop-color="white" stop-opacity="0.8"/>
<stop offset="0.31" stop-color="white" stop-opacity="0.56"/>
<stop offset="0.48" stop-color="white" stop-opacity="0.36"/>
<stop offset="0.64" stop-color="white" stop-opacity="0.2"/>
<stop offset="0.78" stop-color="white" stop-opacity="0.09"/>
<stop offset="0.91" stop-color="white" stop-opacity="0.02"/>
<stop offset="1" stop-color="white" stop-opacity="0"/>
</linearGradient>
<linearGradient id="paint2_linear" x1="23.4059" y1="29.998" x2="19.3879" y2="13.368" gradientUnits="userSpaceOnUse">
<stop stop-color="white"/>
<stop offset="0.02" stop-color="white" stop-opacity="0.93"/>
<stop offset="0.09" stop-color="white" stop-opacity="0.74"/>
<stop offset="0.17" stop-color="white" stop-opacity="0.56"/>
<stop offset="0.25" stop-color="white" stop-opacity="0.41"/>
<stop offset="0.33" stop-color="white" stop-opacity="0.28"/>
<stop offset="0.43" stop-color="white" stop-opacity="0.18"/>
<stop offset="0.53" stop-color="white" stop-opacity="0.1"/>
<stop offset="0.64" stop-color="white" stop-opacity="0.04"/>
<stop offset="0.77" stop-color="white" stop-opacity="0.01"/>
<stop offset="1" stop-color="white" stop-opacity="0"/>
</linearGradient>
<clipPath id="clip0">
<rect width="30" height="30" fill="white"/>
</clipPath>
</defs>
</svg>
