<svg width="30" height="30" viewBox="0 0 30 30" fill="none" xmlns="http://www.w3.org/2000/svg">
<path d="M15 30C23.2843 30 30 23.2843 30 15C30 6.71573 23.2843 0 15 0C6.71573 0 0 6.71573 0 15C0 23.2843 6.71573 30 15 30Z" fill="url(#paint0_linear)"/>
<path d="M8.39999 15L12.2 13.2L15.4 10.6L18.6 12.6L22.2 9" stroke="white" stroke-width="4" stroke-linecap="round" stroke-linejoin="round"/>
<path d="M8.39999 16C8.95228 16 9.39999 15.5523 9.39999 15C9.39999 14.4477 8.95228 14 8.39999 14C7.84771 14 7.39999 14.4477 7.39999 15C7.39999 15.5523 7.84771 16 8.39999 16Z" fill="white"/>
<path d="M12.2 14.2C12.7523 14.2 13.2 13.7523 13.2 13.2C13.2 12.6477 12.7523 12.2 12.2 12.2C11.6477 12.2 11.2 12.6477 11.2 13.2C11.2 13.7523 11.6477 14.2 12.2 14.2Z" fill="white"/>
<path d="M15.4 11.6C15.9523 11.6 16.4 11.1523 16.4 10.6C16.4 10.0477 15.9523 9.6 15.4 9.6C14.8477 9.6 14.4 10.0477 14.4 10.6C14.4 11.1523 14.8477 11.6 15.4 11.6Z" fill="white"/>
<path d="M18.6 13.6C19.1523 13.6 19.6 13.1523 19.6 12.6C19.6 12.0477 19.1523 11.6 18.6 11.6C18.0477 11.6 17.6 12.0477 17.6 12.6C17.6 13.1523 18.0477 13.6 18.6 13.6Z" fill="white"/>
<path d="M22.2 10C22.7523 10 23.2 9.55228 23.2 9C23.2 8.44771 22.7523 8 22.2 8C21.6477 8 21.2 8.44771 21.2 9C21.2 9.55228 21.6477 10 22.2 10Z" fill="white"/>
<path d="M8.39999 19.8L12.2 20.4L15.4 17.8L18.6 21.2L22.2 17.6" stroke="white" stroke-width="4" stroke-linecap="round" stroke-linejoin="round"/>
<path d="M8.39999 20.8C8.95228 20.8 9.39999 20.3523 9.39999 19.8C9.39999 19.2477 8.95228 18.8 8.39999 18.8C7.84771 18.8 7.39999 19.2477 7.39999 19.8C7.39999 20.3523 7.84771 20.8 8.39999 20.8Z" fill="white"/>
<path d="M12.2 21.4C12.7523 21.4 13.2 20.9523 13.2 20.4C13.2 19.8477 12.7523 19.4 12.2 19.4C11.6477 19.4 11.2 19.8477 11.2 20.4C11.2 20.9523 11.6477 21.4 12.2 21.4Z" fill="white"/>
<path d="M15.4 18.8C15.9523 18.8 16.4 18.3523 16.4 17.8C16.4 17.2477 15.9523 16.8 15.4 16.8C14.8477 16.8 14.4 17.2477 14.4 17.8C14.4 18.3523 14.8477 18.8 15.4 18.8Z" fill="white"/>
<path d="M18.6 22.2C19.1523 22.2 19.6 21.7523 19.6 21.2C19.6 20.6477 19.1523 20.2 18.6 20.2C18.0477 20.2 17.6 20.6477 17.6 21.2C17.6 21.7523 18.0477 22.2 18.6 22.2Z" fill="white"/>
<path d="M22.2 18.6C22.7523 18.6 23.2 18.1523 23.2 17.6C23.2 17.0477 22.7523 16.6 22.2 16.6C21.6477 16.6 21.2 17.0477 21.2 17.6C21.2 18.1523 21.6477 18.6 22.2 18.6Z" fill="white"/>
<defs>
<linearGradient id="paint0_linear" x1="15" y1="30" x2="15" y2="0" gradientUnits="userSpaceOnUse">
<stop stop-color="#59B9FF"/>
<stop offset="0.25" stop-color="#4CA9FF"/>
<stop offset="0.71" stop-color="#3991FE"/>
<stop offset="0.99" stop-color="#3288FE"/>
</linearGradient>
</defs>
</svg>
