<svg width="30" height="30" viewBox="0 0 30 30" fill="none" xmlns="http://www.w3.org/2000/svg">
<path d="M15 30C23.2843 30 30 23.2843 30 15C30 6.71573 23.2843 0 15 0C6.71573 0 0 6.71573 0 15C0 23.2843 6.71573 30 15 30Z" fill="#245EDE"/>
<path d="M20.8 9.2H19.2V8.6C19.2 8.44087 19.1368 8.28825 19.0243 8.17573C18.9117 8.06321 18.7591 8 18.6 8H18.2C18.0409 8 17.8883 8.06321 17.7757 8.17573C17.6632 8.28825 17.6 8.44087 17.6 8.6V9.2H12.4V8.6C12.4 8.44087 12.3368 8.28825 12.2243 8.17573C12.1117 8.06321 11.9591 8 11.8 8H11.4C11.2409 8 11.0883 8.06321 10.9757 8.17573C10.8632 8.28825 10.8 8.44087 10.8 8.6V9.2H9.20001C9.04088 9.2 8.88826 9.26321 8.77574 9.37573C8.66322 9.48826 8.60001 9.64087 8.60001 9.8V11.6H21.4V9.8C21.4 9.64087 21.3368 9.48826 21.2243 9.37573C21.1117 9.26321 20.9591 9.2 20.8 9.2ZM11.888 9.8C11.888 9.87956 11.8564 9.95587 11.8001 10.0121C11.7439 10.0684 11.6676 10.1 11.588 10.1C11.5084 10.1 11.4321 10.0684 11.3759 10.0121C11.3196 9.95587 11.288 9.87956 11.288 9.8V8.8C11.288 8.72043 11.3196 8.64413 11.3759 8.58786C11.4321 8.5316 11.5084 8.5 11.588 8.5C11.6676 8.5 11.7439 8.5316 11.8001 8.58786C11.8564 8.64413 11.888 8.72043 11.888 8.8V9.8ZM18.712 9.8C18.712 9.87956 18.6804 9.95587 18.6241 10.0121C18.5679 10.0684 18.4916 10.1 18.412 10.1C18.3324 10.1 18.2561 10.0684 18.1999 10.0121C18.1436 9.95587 18.112 9.87956 18.112 9.8V8.8C18.112 8.72043 18.1436 8.64413 18.1999 8.58786C18.2561 8.5316 18.3324 8.5 18.412 8.5C18.4916 8.5 18.5679 8.5316 18.6241 8.58786C18.6804 8.64413 18.712 8.72043 18.712 8.8V9.8Z" fill="white"/>
<path d="M16.698 16.386C16.8332 16.3528 16.9538 16.2761 17.0413 16.1677C17.1287 16.0593 17.1782 15.9252 17.182 15.786C17.1771 15.6425 17.1174 15.5062 17.0152 15.4053C16.9129 15.3044 16.776 15.2465 16.6324 15.2434C16.4888 15.2403 16.3494 15.2924 16.243 15.3888C16.1365 15.4853 16.0711 15.6188 16.06 15.762C16.058 16.092 16.322 16.28 16.698 16.386Z" fill="white"/>
<path d="M8.60001 12.2V20.8C8.60001 20.9591 8.66322 21.1117 8.77574 21.2243C8.88826 21.3368 9.04088 21.4 9.20001 21.4H20.8C20.9591 21.4 21.1117 21.3368 21.2243 21.2243C21.3368 21.1117 21.4 20.9591 21.4 20.8V12.2H8.60001ZM14.702 18.7H12.06V18.252L12.522 17.822C13.44 16.974 13.872 16.506 13.878 15.99C13.878 15.638 13.69 15.334 13.18 15.334C12.8747 15.3483 12.5825 15.4621 12.348 15.658L12.132 15.134C12.4762 14.8705 12.8986 14.7297 13.332 14.734C14.198 14.734 14.62 15.278 14.62 15.916C14.62 16.602 14.128 17.152 13.446 17.782L13.108 18.078V18.09H14.708L14.702 18.7ZM16.606 18.766C15.696 18.766 15.224 18.242 15.224 17.696C15.224 17.214 15.504 16.882 15.952 16.684V16.668C15.7783 16.5987 15.6288 16.4798 15.5222 16.3262C15.4155 16.1726 15.3563 15.991 15.352 15.804C15.352 15.164 15.916 14.734 16.654 14.734C17.496 14.734 17.874 15.238 17.874 15.716C17.8713 15.9058 17.813 16.0907 17.7064 16.2478C17.5997 16.4049 17.4494 16.5274 17.274 16.6V16.616C17.4877 16.6792 17.676 16.8085 17.8118 16.9852C17.9476 17.162 18.024 17.3772 18.03 17.6C18.03 18.3 17.442 18.766 16.6 18.766H16.606Z" fill="white"/>
<path d="M16.5541 16.932C16.394 16.9611 16.2489 17.0447 16.1435 17.1687C16.0382 17.2927 15.979 17.4493 15.9761 17.612C15.9743 17.6976 15.9902 17.7827 16.0228 17.8619C16.0555 17.9411 16.1041 18.0127 16.1657 18.0722C16.2273 18.1317 16.3005 18.1779 16.3807 18.2078C16.461 18.2377 16.5465 18.2507 16.6321 18.246C16.7131 18.2523 16.7946 18.242 16.8716 18.2158C16.9486 18.1896 17.0195 18.148 17.0799 18.0936C17.1403 18.0391 17.189 17.973 17.2231 17.8991C17.2572 17.8253 17.2759 17.7453 17.2781 17.664C17.2781 17.266 16.9881 17.05 16.5541 16.932Z" fill="white"/>
</svg>
