<svg width="30" height="30" viewBox="0 0 30 30" fill="none" xmlns="http://www.w3.org/2000/svg">
<g clip-path="url(#clip0)">
<path d="M15 30C23.2843 30 30 23.2843 30 15C30 6.71573 23.2843 0 15 0C6.71573 0 0 6.71573 0 15C0 23.2843 6.71573 30 15 30Z" fill="url(#paint0_linear)"/>
<g opacity="0.4">
<path opacity="0.4" d="M18.234 0.354978C15.754 -0.193392 13.1753 -0.103013 10.7397 0.617643C8.30409 1.3383 6.09139 2.66563 4.309 4.4752C2.52662 6.28476 1.23294 8.5173 0.549226 10.9635C-0.134483 13.4097 -0.185822 15.9895 0.400022 18.461L18.234 0.354978Z" fill="url(#paint1_linear)"/>
<path opacity="0.4" d="M12.764 29.83C15.0992 30.1809 17.4842 29.9754 19.7249 29.2305C21.9657 28.4855 23.9989 27.222 25.6592 25.5429C27.3195 23.8637 28.5598 21.8163 29.2794 19.5673C29.9989 17.3182 30.1773 14.931 29.8 12.6L12.764 29.83Z" fill="url(#paint2_linear)"/>
</g>
<path d="M9.4 11.8H12.6V16.6H9.4C8.97566 16.6 8.56869 16.4314 8.26863 16.1314C7.96857 15.8313 7.8 15.4243 7.8 15V13.4C7.8 12.9756 7.96857 12.5687 8.26863 12.2686C8.56869 11.9686 8.97566 11.8 9.4 11.8Z" fill="white"/>
<path d="M9.4 17.2H12.6V19C12.6341 19.5215 12.8458 20.0157 13.2 20.4C13.3415 20.5228 13.4516 20.6776 13.5212 20.8515C13.5908 21.0255 13.6178 21.2135 13.6 21.4C13.6 22 13 22.4 12 22.4C11 22.4 10.4 22 10.2 21C10 20 9.4 17.2 9.4 17.2Z" fill="white"/>
<path d="M19.8 7.60001C19.4 7.60001 18.6 8.80001 17.6 10.2C16.6 11.6 13.2 11.8 13.2 11.8V16.6C13.2 16.6 16.6 16.8 17.6 18.2C18.6 19.6 19.4 20.8 19.8 20.8C20.2 20.8 20.8 20.4 20.8 18.2V10.2C20.8 8.00001 20.2 7.60001 19.8 7.60001Z" fill="white"/>
<path d="M21.6 13.2V16C21.6 16 22.6 15.6 22.6 14.6C22.6 13.4 21.6 13.2 21.6 13.2Z" fill="white"/>
</g>
<defs>
<linearGradient id="paint0_linear" x1="15" y1="30" x2="15" y2="0" gradientUnits="userSpaceOnUse">
<stop stop-color="#F85977"/>
<stop offset="1" stop-color="#F7931E"/>
</linearGradient>
<linearGradient id="paint1_linear" x1="19.8415" y1="3.10035" x2="4.1568" y2="10.099" gradientUnits="userSpaceOnUse">
<stop stop-color="white"/>
<stop offset="0.13" stop-color="white" stop-opacity="0.8"/>
<stop offset="0.31" stop-color="white" stop-opacity="0.56"/>
<stop offset="0.48" stop-color="white" stop-opacity="0.36"/>
<stop offset="0.64" stop-color="white" stop-opacity="0.2"/>
<stop offset="0.78" stop-color="white" stop-opacity="0.09"/>
<stop offset="0.91" stop-color="white" stop-opacity="0.02"/>
<stop offset="1" stop-color="white" stop-opacity="0"/>
</linearGradient>
<linearGradient id="paint2_linear" x1="23.406" y1="29.998" x2="19.388" y2="13.368" gradientUnits="userSpaceOnUse">
<stop stop-color="white"/>
<stop offset="0.02" stop-color="white" stop-opacity="0.93"/>
<stop offset="0.09" stop-color="white" stop-opacity="0.74"/>
<stop offset="0.17" stop-color="white" stop-opacity="0.56"/>
<stop offset="0.25" stop-color="white" stop-opacity="0.41"/>
<stop offset="0.33" stop-color="white" stop-opacity="0.28"/>
<stop offset="0.43" stop-color="white" stop-opacity="0.18"/>
<stop offset="0.53" stop-color="white" stop-opacity="0.1"/>
<stop offset="0.64" stop-color="white" stop-opacity="0.04"/>
<stop offset="0.77" stop-color="white" stop-opacity="0.01"/>
<stop offset="1" stop-color="white" stop-opacity="0"/>
</linearGradient>
<clipPath id="clip0">
<rect width="30" height="30" fill="white"/>
</clipPath>
</defs>
</svg>
