<svg width="30" height="30" viewBox="0 0 30 30" fill="none" xmlns="http://www.w3.org/2000/svg">
<g clip-path="url(#clip0)">
<path d="M15 30C23.2843 30 30 23.2843 30 15C30 6.71573 23.2843 0 15 0C6.71573 0 0 6.71573 0 15C0 23.2843 6.71573 30 15 30Z" fill="#245EDE"/>
<g opacity="0.4">
<path opacity="0.4" d="M18.234 0.35497C15.7539 -0.1934 13.1752 -0.103021 10.7396 0.617635C8.30404 1.33829 6.09134 2.66562 4.30895 4.47519C2.52657 6.28476 1.23289 8.51729 0.549177 10.9635C-0.134532 13.4097 -0.185871 15.9895 0.399973 18.461L18.234 0.35497Z" fill="url(#paint0_linear)"/>
<path opacity="0.4" d="M12.7639 29.83C15.0991 30.1809 17.4841 29.9754 19.7249 29.2305C21.9656 28.4855 23.9989 27.222 25.6591 25.5429C27.3194 23.8637 28.5597 21.8163 29.2793 19.5673C29.9988 17.3182 30.1772 14.931 29.7999 12.6L12.7639 29.83Z" fill="url(#paint1_linear)"/>
</g>
<path d="M15.2 9L9 11V21.4H21.4V11L15.2 9ZM19.4 20.8H11V13.2H19.4V20.8Z" fill="white"/>
<path d="M16 14.4H14.4C14.0686 14.4 13.8 14.6686 13.8 15V16.6C13.8 16.9314 14.0686 17.2 14.4 17.2H16C16.3314 17.2 16.6 16.9314 16.6 16.6V15C16.6 14.6686 16.3314 14.4 16 14.4Z" fill="white"/>
<path d="M14.4 17.6H12.8C12.4686 17.6 12.2 17.8686 12.2 18.2V19.8C12.2 20.1314 12.4686 20.4 12.8 20.4H14.4C14.7314 20.4 15 20.1314 15 19.8V18.2C15 17.8686 14.7314 17.6 14.4 17.6Z" fill="white"/>
<path d="M17.6 17.6H16C15.6686 17.6 15.4 17.8686 15.4 18.2V19.8C15.4 20.1314 15.6686 20.4 16 20.4H17.6C17.9314 20.4 18.2 20.1314 18.2 19.8V18.2C18.2 17.8686 17.9314 17.6 17.6 17.6Z" fill="white"/>
</g>
<defs>
<linearGradient id="paint0_linear" x1="19.8418" y1="3.10035" x2="4.15707" y2="10.099" gradientUnits="userSpaceOnUse">
<stop stop-color="white"/>
<stop offset="0.13" stop-color="white" stop-opacity="0.8"/>
<stop offset="0.31" stop-color="white" stop-opacity="0.56"/>
<stop offset="0.48" stop-color="white" stop-opacity="0.36"/>
<stop offset="0.64" stop-color="white" stop-opacity="0.2"/>
<stop offset="0.78" stop-color="white" stop-opacity="0.09"/>
<stop offset="0.91" stop-color="white" stop-opacity="0.02"/>
<stop offset="1" stop-color="white" stop-opacity="0"/>
</linearGradient>
<linearGradient id="paint1_linear" x1="23.4059" y1="29.998" x2="19.3879" y2="13.368" gradientUnits="userSpaceOnUse">
<stop stop-color="white"/>
<stop offset="0.02" stop-color="white" stop-opacity="0.93"/>
<stop offset="0.09" stop-color="white" stop-opacity="0.74"/>
<stop offset="0.17" stop-color="white" stop-opacity="0.56"/>
<stop offset="0.25" stop-color="white" stop-opacity="0.41"/>
<stop offset="0.33" stop-color="white" stop-opacity="0.28"/>
<stop offset="0.43" stop-color="white" stop-opacity="0.18"/>
<stop offset="0.53" stop-color="white" stop-opacity="0.1"/>
<stop offset="0.64" stop-color="white" stop-opacity="0.04"/>
<stop offset="0.77" stop-color="white" stop-opacity="0.01"/>
<stop offset="1" stop-color="white" stop-opacity="0"/>
</linearGradient>
<clipPath id="clip0">
<rect width="30" height="30" fill="white"/>
</clipPath>
</defs>
</svg>
