<svg width="30" height="30" viewBox="0 0 30 30" fill="none" xmlns="http://www.w3.org/2000/svg">
<g clip-path="url(#clip0)">
<path d="M15 30C23.2843 30 30 23.2843 30 15C30 6.71573 23.2843 0 15 0C6.71573 0 0 6.71573 0 15C0 23.2843 6.71573 30 15 30Z" fill="#245EDE"/>
<g opacity="0.4">
<path opacity="0.4" d="M18.234 0.35497C15.7539 -0.1934 13.1752 -0.103021 10.7396 0.617635C8.30405 1.33829 6.09134 2.66562 4.30896 4.47519C2.52658 6.28475 1.23289 8.51729 0.549183 10.9635C-0.134526 13.4097 -0.185865 15.9895 0.399979 18.461L18.234 0.35497Z" fill="url(#paint0_linear)"/>
<path opacity="0.4" d="M12.7639 29.83C15.0991 30.1809 17.4841 29.9754 19.7249 29.2305C21.9656 28.4855 23.9989 27.222 25.6591 25.5429C27.3194 23.8637 28.5597 21.8163 29.2793 19.5673C29.9988 17.3182 30.1772 14.931 29.7999 12.6L12.7639 29.83Z" fill="url(#paint1_linear)"/>
</g>
<path d="M9.20001 13.6V21.4H22.4V13.6H9.20001ZM21.8 20.8H9.80001V14.2H21.8V20.8Z" fill="white"/>
<path d="M9.20001 16.2C9.88958 16.2 10.5509 15.9261 11.0385 15.4385C11.5261 14.9509 11.8 14.2896 11.8 13.6H9.20001V16.2Z" fill="white"/>
<path d="M11.8 21.4C11.8 20.7104 11.5261 20.0491 11.0385 19.5615C10.5509 19.0739 9.88958 18.8 9.20001 18.8V21.4H11.8Z" fill="white"/>
<path d="M22.4 18.8C21.7104 18.8 21.0491 19.0739 20.5615 19.5615C20.0739 20.0491 19.8 20.7104 19.8 21.4H22.4V18.8Z" fill="white"/>
<path d="M19.8 13.6C19.8 14.2896 20.0739 14.9509 20.5615 15.4385C21.0491 15.9261 21.7104 16.2 22.4 16.2V13.6H19.8Z" fill="white"/>
<path d="M15.8 20C17.1255 20 18.2 18.8359 18.2 17.4C18.2 15.9641 17.1255 14.8 15.8 14.8C14.4745 14.8 13.4 15.9641 13.4 17.4C13.4 18.8359 14.4745 20 15.8 20Z" fill="white"/>
<path d="M11.6 18.4C12.0418 18.4 12.4 18.0418 12.4 17.6C12.4 17.1582 12.0418 16.8 11.6 16.8C11.1582 16.8 10.8 17.1582 10.8 17.6C10.8 18.0418 11.1582 18.4 11.6 18.4Z" fill="white"/>
<path d="M20 18.4C20.4418 18.4 20.8 18.0418 20.8 17.6C20.8 17.1582 20.4418 16.8 20 16.8C19.5582 16.8 19.2 17.1582 19.2 17.6C19.2 18.0418 19.5582 18.4 20 18.4Z" fill="white"/>
<path d="M17.092 12.582C16.72 11.2 15.382 10.348 14.102 10.692C12.89 11.016 12.166 12.292 12.406 13.6H17.172C17.2086 13.2586 17.1815 12.9134 17.092 12.582Z" fill="white"/>
<path d="M19.09 13.082C19.2428 13.041 19.38 12.9557 19.4843 12.8367C19.5886 12.7178 19.6553 12.5706 19.676 12.4137C19.6966 12.2569 19.6703 12.0974 19.6003 11.9555C19.5304 11.8136 19.4199 11.6957 19.2829 11.6165C19.1459 11.5374 18.9885 11.5007 18.8307 11.511C18.6728 11.5213 18.5215 11.5782 18.396 11.6745C18.2705 11.7707 18.1763 11.9021 18.1254 12.0519C18.0745 12.2016 18.0691 12.3632 18.11 12.516C18.1371 12.6175 18.184 12.7127 18.248 12.7961C18.312 12.8795 18.3917 12.9495 18.4827 13.002C18.5737 13.0546 18.6742 13.0887 18.7784 13.1024C18.8826 13.1162 18.9885 13.1092 19.09 13.082Z" fill="white"/>
<path d="M9.19994 15.582L8.64994 13.528C9.07338 13.299 9.42492 12.9569 9.66539 12.5399C9.90587 12.1228 10.0258 11.6472 10.0119 11.166L17.8799 9.058C18.1085 9.4815 18.4502 9.83324 18.8669 10.0741C19.2835 10.3149 19.7589 10.4353 20.2399 10.422L20.9499 13.072C20.6975 13.2102 20.4692 13.3885 20.2739 13.6H21.7139L20.8379 10.336L20.1659 7.824L17.6539 8.498L7.41594 11.242L8.76194 16.264L9.19994 17.9V15.582Z" fill="white"/>
</g>
<defs>
<linearGradient id="paint0_linear" x1="19.8418" y1="3.10202" x2="4.15707" y2="10.0987" gradientUnits="userSpaceOnUse">
<stop stop-color="white"/>
<stop offset="0.13" stop-color="white" stop-opacity="0.8"/>
<stop offset="0.31" stop-color="white" stop-opacity="0.56"/>
<stop offset="0.48" stop-color="white" stop-opacity="0.36"/>
<stop offset="0.64" stop-color="white" stop-opacity="0.2"/>
<stop offset="0.78" stop-color="white" stop-opacity="0.09"/>
<stop offset="0.91" stop-color="white" stop-opacity="0.02"/>
<stop offset="1" stop-color="white" stop-opacity="0"/>
</linearGradient>
<linearGradient id="paint1_linear" x1="23.4059" y1="29.998" x2="19.3879" y2="13.368" gradientUnits="userSpaceOnUse">
<stop stop-color="white"/>
<stop offset="0.02" stop-color="white" stop-opacity="0.93"/>
<stop offset="0.09" stop-color="white" stop-opacity="0.74"/>
<stop offset="0.17" stop-color="white" stop-opacity="0.56"/>
<stop offset="0.25" stop-color="white" stop-opacity="0.41"/>
<stop offset="0.33" stop-color="white" stop-opacity="0.28"/>
<stop offset="0.43" stop-color="white" stop-opacity="0.18"/>
<stop offset="0.53" stop-color="white" stop-opacity="0.1"/>
<stop offset="0.64" stop-color="white" stop-opacity="0.04"/>
<stop offset="0.77" stop-color="white" stop-opacity="0.01"/>
<stop offset="1" stop-color="white" stop-opacity="0"/>
</linearGradient>
<clipPath id="clip0">
<rect width="30" height="30" fill="white"/>
</clipPath>
</defs>
</svg>
