<svg width="12" height="21" viewBox="0 0 12 21" fill="none" xmlns="http://www.w3.org/2000/svg">
<path d="M11.6575 9.55291L2.58073 0.652823C2.3708 0.446808 2.09055 0.333313 1.79174 0.333313C1.49292 0.333313 1.21268 0.446808 1.00274 0.652823L0.334303 1.3081C-0.100655 1.73509 -0.100655 2.42907 0.334303 2.85541L7.95627 10.3292L0.325846 17.8112C0.115912 18.0172 0 18.2919 0 18.5847C0 18.8779 0.115912 19.1525 0.325846 19.3587L0.994285 20.0138C1.20439 20.2198 1.48446 20.3333 1.78328 20.3333C2.0821 20.3333 2.36234 20.2198 2.57227 20.0138L11.6575 11.1056C11.8679 10.8989 11.9835 10.623 11.9828 10.3297C11.9835 10.0352 11.8679 9.75942 11.6575 9.55291Z" fill="white"/>
</svg>
